<?xml version="1.0" encoding="utf-8" standalone="no"?>
<!DOCTYPE svg PUBLIC "-//W3C//DTD SVG 1.1//EN"
  "http://www.w3.org/Graphics/SVG/1.1/DTD/svg11.dtd">
<svg xmlns:xlink="http://www.w3.org/1999/xlink" width="792pt" height="432pt" viewBox="0 0 792 432" xmlns="http://www.w3.org/2000/svg" version="1.1">
 <metadata>
  <rdf:RDF xmlns:dc="http://purl.org/dc/elements/1.1/" xmlns:cc="http://creativecommons.org/ns#" xmlns:rdf="http://www.w3.org/1999/02/22-rdf-syntax-ns#">
   <cc:Work>
    <dc:type rdf:resource="http://purl.org/dc/dcmitype/StillImage"/>
    <dc:date>2025-07-10T15:46:17.404350</dc:date>
    <dc:format>image/svg+xml</dc:format>
    <dc:creator>
     <cc:Agent>
      <dc:title>Matplotlib v3.10.1, https://matplotlib.org/</dc:title>
     </cc:Agent>
    </dc:creator>
   </cc:Work>
  </rdf:RDF>
 </metadata>
 <defs>
  <style type="text/css">*{stroke-linejoin: round; stroke-linecap: butt}</style>
 </defs>
 <g id="figure_1">
  <g id="patch_1">
   <path d="M 0 432 
L 792 432 
L 792 0 
L 0 0 
z
" style="fill: #ffffff"/>
  </g>
  <g id="axes_1">
   <g id="patch_2">
    <path d="M 99 384.48 
L 712.8 384.48 
L 712.8 51.84 
L 99 51.84 
z
" style="fill: #ffffff"/>
   </g>
   <g id="PathCollection_1">
    <defs>
     <path id="C0_0_f95d27e97f" d="M 0 3.872983 
C 1.027127 3.872983 2.012324 3.464901 2.738613 2.738613 
C 3.464901 2.012324 3.872983 1.027127 3.872983 -0 
C 3.872983 -1.027127 3.464901 -2.012324 2.738613 -2.738613 
C 2.012324 -3.464901 1.027127 -3.872983 0 -3.872983 
C -1.027127 -3.872983 -2.012324 -3.464901 -2.738613 -2.738613 
C -3.464901 -2.012324 -3.872983 -1.027127 -3.872983 0 
C -3.872983 1.027127 -3.464901 2.012324 -2.738613 2.738613 
C -2.012324 3.464901 -1.027127 3.872983 0 3.872983 
z
"/>
    </defs>
    <g clip-path="url(#pa2ccc00465)">
     <use xlink:href="#C0_0_f95d27e97f" x="546.799083" y="126.908615" style="fill: #482475; fill-opacity: 0.8; stroke: #ffffff; stroke-opacity: 0.8; stroke-width: 0.619677"/>
    </g>
    <g clip-path="url(#pa2ccc00465)">
     <use xlink:href="#C0_0_f95d27e97f" x="592.849088" y="86.271659" style="fill: #482475; fill-opacity: 0.8; stroke: #ffffff; stroke-opacity: 0.8; stroke-width: 0.619677"/>
    </g>
    <g clip-path="url(#pa2ccc00465)">
     <use xlink:href="#C0_0_f95d27e97f" x="564.839943" y="137.606164" style="fill: #482475; fill-opacity: 0.8; stroke: #ffffff; stroke-opacity: 0.8; stroke-width: 0.619677"/>
    </g>
    <g clip-path="url(#pa2ccc00465)">
     <use xlink:href="#C0_0_f95d27e97f" x="374.911467" y="369.36" style="fill: #414487; fill-opacity: 0.8; stroke: #ffffff; stroke-opacity: 0.8; stroke-width: 0.619677"/>
    </g>
    <g clip-path="url(#pa2ccc00465)">
     <use xlink:href="#C0_0_f95d27e97f" x="650.39801" y="177.851033" style="fill: #482475; fill-opacity: 0.8; stroke: #ffffff; stroke-opacity: 0.8; stroke-width: 0.619677"/>
    </g>
    <g clip-path="url(#pa2ccc00465)">
     <use xlink:href="#C0_0_f95d27e97f" x="355.615413" y="267.276247" style="fill: #355f8d; fill-opacity: 0.8; stroke: #ffffff; stroke-opacity: 0.8; stroke-width: 0.619677"/>
    </g>
    <g clip-path="url(#pa2ccc00465)">
     <use xlink:href="#C0_0_f95d27e97f" x="368.922686" y="364.166092" style="fill: #414487; fill-opacity: 0.8; stroke: #ffffff; stroke-opacity: 0.8; stroke-width: 0.619677"/>
    </g>
    <g clip-path="url(#pa2ccc00465)">
     <use xlink:href="#C0_0_f95d27e97f" x="471.423221" y="190.138635" style="fill: #482475; fill-opacity: 0.8; stroke: #ffffff; stroke-opacity: 0.8; stroke-width: 0.619677"/>
    </g>
    <g clip-path="url(#pa2ccc00465)">
     <use xlink:href="#C0_0_f95d27e97f" x="578.383137" y="74.574049" style="fill: #482475; fill-opacity: 0.8; stroke: #ffffff; stroke-opacity: 0.8; stroke-width: 0.619677"/>
    </g>
    <g clip-path="url(#pa2ccc00465)">
     <use xlink:href="#C0_0_f95d27e97f" x="586.592845" y="106.339535" style="fill: #482475; fill-opacity: 0.8; stroke: #ffffff; stroke-opacity: 0.8; stroke-width: 0.619677"/>
    </g>
    <g clip-path="url(#pa2ccc00465)">
     <use xlink:href="#C0_0_f95d27e97f" x="542.480121" y="109.227428" style="fill: #482475; fill-opacity: 0.8; stroke: #ffffff; stroke-opacity: 0.8; stroke-width: 0.619677"/>
    </g>
    <g clip-path="url(#pa2ccc00465)">
     <use xlink:href="#C0_0_f95d27e97f" x="373.811013" y="310.980011" style="fill: #355f8d; fill-opacity: 0.8; stroke: #ffffff; stroke-opacity: 0.8; stroke-width: 0.619677"/>
    </g>
    <g clip-path="url(#pa2ccc00465)">
     <use xlink:href="#C0_0_f95d27e97f" x="605.589463" y="125.654459" style="fill: #482475; fill-opacity: 0.8; stroke: #ffffff; stroke-opacity: 0.8; stroke-width: 0.619677"/>
    </g>
    <g clip-path="url(#pa2ccc00465)">
     <use xlink:href="#C0_0_f95d27e97f" x="345.947092" y="263.851998" style="fill: #355f8d; fill-opacity: 0.8; stroke: #ffffff; stroke-opacity: 0.8; stroke-width: 0.619677"/>
    </g>
    <g clip-path="url(#pa2ccc00465)">
     <use xlink:href="#C0_0_f95d27e97f" x="129.681657" y="193.598543" style="fill: #414487; fill-opacity: 0.8; stroke: #ffffff; stroke-opacity: 0.8; stroke-width: 0.619677"/>
    </g>
    <g clip-path="url(#pa2ccc00465)">
     <use xlink:href="#C0_0_f95d27e97f" x="132.368564" y="189.528916" style="fill: #414487; fill-opacity: 0.8; stroke: #ffffff; stroke-opacity: 0.8; stroke-width: 0.619677"/>
    </g>
    <g clip-path="url(#pa2ccc00465)">
     <use xlink:href="#C0_0_f95d27e97f" x="145.577106" y="189.524869" style="fill: #2a788e; fill-opacity: 0.8; stroke: #ffffff; stroke-opacity: 0.8; stroke-width: 0.619677"/>
    </g>
    <g clip-path="url(#pa2ccc00465)">
     <use xlink:href="#C0_0_f95d27e97f" x="398.474903" y="238.249166" style="fill: #414487; fill-opacity: 0.8; stroke: #ffffff; stroke-opacity: 0.8; stroke-width: 0.619677"/>
    </g>
    <g clip-path="url(#pa2ccc00465)">
     <use xlink:href="#C0_0_f95d27e97f" x="583.955195" y="74.920569" style="fill: #482475; fill-opacity: 0.8; stroke: #ffffff; stroke-opacity: 0.8; stroke-width: 0.619677"/>
    </g>
    <g clip-path="url(#pa2ccc00465)">
     <use xlink:href="#C0_0_f95d27e97f" x="591.243999" y="98.045598" style="fill: #482475; fill-opacity: 0.8; stroke: #ffffff; stroke-opacity: 0.8; stroke-width: 0.619677"/>
    </g>
    <g clip-path="url(#pa2ccc00465)">
     <use xlink:href="#C0_0_f95d27e97f" x="353.006625" y="268.327508" style="fill: #355f8d; fill-opacity: 0.8; stroke: #ffffff; stroke-opacity: 0.8; stroke-width: 0.619677"/>
    </g>
    <g clip-path="url(#pa2ccc00465)">
     <use xlink:href="#C0_0_f95d27e97f" x="643.25097" y="174.238695" style="fill: #482475; fill-opacity: 0.8; stroke: #ffffff; stroke-opacity: 0.8; stroke-width: 0.619677"/>
    </g>
    <g clip-path="url(#pa2ccc00465)">
     <use xlink:href="#C0_0_f95d27e97f" x="585.849602" y="118.373686" style="fill: #482475; fill-opacity: 0.8; stroke: #ffffff; stroke-opacity: 0.8; stroke-width: 0.619677"/>
    </g>
    <g clip-path="url(#pa2ccc00465)">
     <use xlink:href="#C0_0_f95d27e97f" x="147.752668" y="194.244267" style="fill: #2a788e; fill-opacity: 0.8; stroke: #ffffff; stroke-opacity: 0.8; stroke-width: 0.619677"/>
    </g>
    <g clip-path="url(#pa2ccc00465)">
     <use xlink:href="#C0_0_f95d27e97f" x="675.776395" y="175.224363" style="fill: #482475; fill-opacity: 0.8; stroke: #ffffff; stroke-opacity: 0.8; stroke-width: 0.619677"/>
    </g>
    <g clip-path="url(#pa2ccc00465)">
     <use xlink:href="#C0_0_f95d27e97f" x="446.758087" y="199.057559" style="fill: #482475; fill-opacity: 0.8; stroke: #ffffff; stroke-opacity: 0.8; stroke-width: 0.619677"/>
    </g>
    <g clip-path="url(#pa2ccc00465)">
     <use xlink:href="#C0_0_f95d27e97f" x="562.361195" y="121.163683" style="fill: #482475; fill-opacity: 0.8; stroke: #ffffff; stroke-opacity: 0.8; stroke-width: 0.619677"/>
    </g>
    <g clip-path="url(#pa2ccc00465)">
     <use xlink:href="#C0_0_f95d27e97f" x="465.984055" y="221.88228" style="fill: #482475; fill-opacity: 0.8; stroke: #ffffff; stroke-opacity: 0.8; stroke-width: 0.619677"/>
    </g>
    <g clip-path="url(#pa2ccc00465)">
     <use xlink:href="#C0_0_f95d27e97f" x="345.127775" y="262.117194" style="fill: #414487; fill-opacity: 0.8; stroke: #ffffff; stroke-opacity: 0.8; stroke-width: 0.619677"/>
    </g>
    <g clip-path="url(#pa2ccc00465)">
     <use xlink:href="#C0_0_f95d27e97f" x="627.02291" y="150.661526" style="fill: #482475; fill-opacity: 0.8; stroke: #ffffff; stroke-opacity: 0.8; stroke-width: 0.619677"/>
    </g>
    <g clip-path="url(#pa2ccc00465)">
     <use xlink:href="#C0_0_f95d27e97f" x="493.509025" y="174.56581" style="fill: #482475; fill-opacity: 0.8; stroke: #ffffff; stroke-opacity: 0.8; stroke-width: 0.619677"/>
    </g>
    <g clip-path="url(#pa2ccc00465)">
     <use xlink:href="#C0_0_f95d27e97f" x="664.219001" y="155.506362" style="fill: #482475; fill-opacity: 0.8; stroke: #ffffff; stroke-opacity: 0.8; stroke-width: 0.619677"/>
    </g>
    <g clip-path="url(#pa2ccc00465)">
     <use xlink:href="#C0_0_f95d27e97f" x="466.530718" y="182.941136" style="fill: #482475; fill-opacity: 0.8; stroke: #ffffff; stroke-opacity: 0.8; stroke-width: 0.619677"/>
    </g>
    <g clip-path="url(#pa2ccc00465)">
     <use xlink:href="#C0_0_f95d27e97f" x="529.323644" y="138.645401" style="fill: #482475; fill-opacity: 0.8; stroke: #ffffff; stroke-opacity: 0.8; stroke-width: 0.619677"/>
    </g>
    <g clip-path="url(#pa2ccc00465)">
     <use xlink:href="#C0_0_f95d27e97f" x="629.310187" y="158.613313" style="fill: #482475; fill-opacity: 0.8; stroke: #ffffff; stroke-opacity: 0.8; stroke-width: 0.619677"/>
    </g>
    <g clip-path="url(#pa2ccc00465)">
     <use xlink:href="#C0_0_f95d27e97f" x="455.045479" y="229.275938" style="fill: #482475; fill-opacity: 0.8; stroke: #ffffff; stroke-opacity: 0.8; stroke-width: 0.619677"/>
    </g>
    <g clip-path="url(#pa2ccc00465)">
     <use xlink:href="#C0_0_f95d27e97f" x="410.084174" y="221.979946" style="fill: #21918c; fill-opacity: 0.8; stroke: #ffffff; stroke-opacity: 0.8; stroke-width: 0.619677"/>
    </g>
    <g clip-path="url(#pa2ccc00465)">
     <use xlink:href="#C0_0_f95d27e97f" x="459.125523" y="235.036963" style="fill: #482475; fill-opacity: 0.8; stroke: #ffffff; stroke-opacity: 0.8; stroke-width: 0.619677"/>
    </g>
    <g clip-path="url(#pa2ccc00465)">
     <use xlink:href="#C0_0_f95d27e97f" x="375.722414" y="367.420967" style="fill: #22a884; fill-opacity: 0.8; stroke: #ffffff; stroke-opacity: 0.8; stroke-width: 0.619677"/>
    </g>
    <g clip-path="url(#pa2ccc00465)">
     <use xlink:href="#C0_0_f95d27e97f" x="564.883859" y="102.03094" style="fill: #482475; fill-opacity: 0.8; stroke: #ffffff; stroke-opacity: 0.8; stroke-width: 0.619677"/>
    </g>
    <g clip-path="url(#pa2ccc00465)">
     <use xlink:href="#C0_0_f95d27e97f" x="545.140525" y="93.603839" style="fill: #482475; fill-opacity: 0.8; stroke: #ffffff; stroke-opacity: 0.8; stroke-width: 0.619677"/>
    </g>
    <g clip-path="url(#pa2ccc00465)">
     <use xlink:href="#C0_0_f95d27e97f" x="550.3658" y="80.317372" style="fill: #482475; fill-opacity: 0.8; stroke: #ffffff; stroke-opacity: 0.8; stroke-width: 0.619677"/>
    </g>
    <g clip-path="url(#pa2ccc00465)">
     <use xlink:href="#C0_0_f95d27e97f" x="526.031526" y="158.074405" style="fill: #482475; fill-opacity: 0.8; stroke: #ffffff; stroke-opacity: 0.8; stroke-width: 0.619677"/>
    </g>
    <g clip-path="url(#pa2ccc00465)">
     <use xlink:href="#C0_0_f95d27e97f" x="462.290555" y="205.910194" style="fill: #482475; fill-opacity: 0.8; stroke: #ffffff; stroke-opacity: 0.8; stroke-width: 0.619677"/>
    </g>
    <g clip-path="url(#pa2ccc00465)">
     <use xlink:href="#C0_0_f95d27e97f" x="616.629592" y="135.224026" style="fill: #414487; fill-opacity: 0.8; stroke: #ffffff; stroke-opacity: 0.8; stroke-width: 0.619677"/>
    </g>
    <g clip-path="url(#pa2ccc00465)">
     <use xlink:href="#C0_0_f95d27e97f" x="369.695601" y="328.098633" style="fill: #21918c; fill-opacity: 0.8; stroke: #ffffff; stroke-opacity: 0.8; stroke-width: 0.619677"/>
    </g>
    <g clip-path="url(#pa2ccc00465)">
     <use xlink:href="#C0_0_f95d27e97f" x="678.604791" y="230.452339" style="fill: #482475; fill-opacity: 0.8; stroke: #ffffff; stroke-opacity: 0.8; stroke-width: 0.619677"/>
    </g>
    <g clip-path="url(#pa2ccc00465)">
     <use xlink:href="#C0_0_f95d27e97f" x="677.105974" y="218.220834" style="fill: #482475; fill-opacity: 0.8; stroke: #ffffff; stroke-opacity: 0.8; stroke-width: 0.619677"/>
    </g>
    <g clip-path="url(#pa2ccc00465)">
     <use xlink:href="#C0_0_f95d27e97f" x="622.718712" y="119.736727" style="fill: #482475; fill-opacity: 0.8; stroke: #ffffff; stroke-opacity: 0.8; stroke-width: 0.619677"/>
    </g>
    <g clip-path="url(#pa2ccc00465)">
     <use xlink:href="#C0_0_f95d27e97f" x="376.895928" y="266.242505" style="fill: #482475; fill-opacity: 0.8; stroke: #ffffff; stroke-opacity: 0.8; stroke-width: 0.619677"/>
    </g>
    <g clip-path="url(#pa2ccc00465)">
     <use xlink:href="#C0_0_f95d27e97f" x="612.370584" y="129.227436" style="fill: #414487; fill-opacity: 0.8; stroke: #ffffff; stroke-opacity: 0.8; stroke-width: 0.619677"/>
    </g>
    <g clip-path="url(#pa2ccc00465)">
     <use xlink:href="#C0_0_f95d27e97f" x="359.279746" y="361.938592" style="fill: #414487; fill-opacity: 0.8; stroke: #ffffff; stroke-opacity: 0.8; stroke-width: 0.619677"/>
    </g>
    <g clip-path="url(#pa2ccc00465)">
     <use xlink:href="#C0_0_f95d27e97f" x="558.663107" y="142.151244" style="fill: #482475; fill-opacity: 0.8; stroke: #ffffff; stroke-opacity: 0.8; stroke-width: 0.619677"/>
    </g>
    <g clip-path="url(#pa2ccc00465)">
     <use xlink:href="#C0_0_f95d27e97f" x="513.102851" y="166.19637" style="fill: #21918c; fill-opacity: 0.8; stroke: #ffffff; stroke-opacity: 0.8; stroke-width: 0.619677"/>
    </g>
    <g clip-path="url(#pa2ccc00465)">
     <use xlink:href="#C0_0_f95d27e97f" x="358.0458" y="285.757059" style="fill: #355f8d; fill-opacity: 0.8; stroke: #ffffff; stroke-opacity: 0.8; stroke-width: 0.619677"/>
    </g>
    <g clip-path="url(#pa2ccc00465)">
     <use xlink:href="#C0_0_f95d27e97f" x="621.251479" y="98.493369" style="fill: #482475; fill-opacity: 0.8; stroke: #ffffff; stroke-opacity: 0.8; stroke-width: 0.619677"/>
    </g>
    <g clip-path="url(#pa2ccc00465)">
     <use xlink:href="#C0_0_f95d27e97f" x="128.405793" y="199.349728" style="fill: #414487; fill-opacity: 0.8; stroke: #ffffff; stroke-opacity: 0.8; stroke-width: 0.619677"/>
    </g>
    <g clip-path="url(#pa2ccc00465)">
     <use xlink:href="#C0_0_f95d27e97f" x="368.074177" y="324.313449" style="fill: #44bf70; fill-opacity: 0.8; stroke: #ffffff; stroke-opacity: 0.8; stroke-width: 0.619677"/>
    </g>
    <g clip-path="url(#pa2ccc00465)">
     <use xlink:href="#C0_0_f95d27e97f" x="366.139834" y="275.8953" style="fill: #355f8d; fill-opacity: 0.8; stroke: #ffffff; stroke-opacity: 0.8; stroke-width: 0.619677"/>
    </g>
    <g clip-path="url(#pa2ccc00465)">
     <use xlink:href="#C0_0_f95d27e97f" x="401.338422" y="225.56543" style="fill: #21918c; fill-opacity: 0.8; stroke: #ffffff; stroke-opacity: 0.8; stroke-width: 0.619677"/>
    </g>
    <g clip-path="url(#pa2ccc00465)">
     <use xlink:href="#C0_0_f95d27e97f" x="359.97667" y="296.072567" style="fill: #355f8d; fill-opacity: 0.8; stroke: #ffffff; stroke-opacity: 0.8; stroke-width: 0.619677"/>
    </g>
    <g clip-path="url(#pa2ccc00465)">
     <use xlink:href="#C0_0_f95d27e97f" x="379.988001" y="269.421532" style="fill: #44bf70; fill-opacity: 0.8; stroke: #ffffff; stroke-opacity: 0.8; stroke-width: 0.619677"/>
    </g>
    <g clip-path="url(#pa2ccc00465)">
     <use xlink:href="#C0_0_f95d27e97f" x="461.424641" y="197.452377" style="fill: #482475; fill-opacity: 0.8; stroke: #ffffff; stroke-opacity: 0.8; stroke-width: 0.619677"/>
    </g>
    <g clip-path="url(#pa2ccc00465)">
     <use xlink:href="#C0_0_f95d27e97f" x="676.926866" y="241.821569" style="fill: #482475; fill-opacity: 0.8; stroke: #ffffff; stroke-opacity: 0.8; stroke-width: 0.619677"/>
    </g>
    <g clip-path="url(#pa2ccc00465)">
     <use xlink:href="#C0_0_f95d27e97f" x="395.412373" y="230.20491" style="fill: #414487; fill-opacity: 0.8; stroke: #ffffff; stroke-opacity: 0.8; stroke-width: 0.619677"/>
    </g>
    <g clip-path="url(#pa2ccc00465)">
     <use xlink:href="#C0_0_f95d27e97f" x="369.729218" y="342.946139" style="fill: #21918c; fill-opacity: 0.8; stroke: #ffffff; stroke-opacity: 0.8; stroke-width: 0.619677"/>
    </g>
    <g clip-path="url(#pa2ccc00465)">
     <use xlink:href="#C0_0_f95d27e97f" x="545.044355" y="85.280473" style="fill: #482475; fill-opacity: 0.8; stroke: #ffffff; stroke-opacity: 0.8; stroke-width: 0.619677"/>
    </g>
    <g clip-path="url(#pa2ccc00465)">
     <use xlink:href="#C0_0_f95d27e97f" x="671.490522" y="225.126532" style="fill: #482475; fill-opacity: 0.8; stroke: #ffffff; stroke-opacity: 0.8; stroke-width: 0.619677"/>
    </g>
    <g clip-path="url(#pa2ccc00465)">
     <use xlink:href="#C0_0_f95d27e97f" x="368.624603" y="279.574242" style="fill: #355f8d; fill-opacity: 0.8; stroke: #ffffff; stroke-opacity: 0.8; stroke-width: 0.619677"/>
    </g>
    <g clip-path="url(#pa2ccc00465)">
     <use xlink:href="#C0_0_f95d27e97f" x="365.703381" y="365.634271" style="fill: #414487; fill-opacity: 0.8; stroke: #ffffff; stroke-opacity: 0.8; stroke-width: 0.619677"/>
    </g>
    <g clip-path="url(#pa2ccc00465)">
     <use xlink:href="#C0_0_f95d27e97f" x="424.082299" y="219.404684" style="fill: #21918c; fill-opacity: 0.8; stroke: #ffffff; stroke-opacity: 0.8; stroke-width: 0.619677"/>
    </g>
    <g clip-path="url(#pa2ccc00465)">
     <use xlink:href="#C0_0_f95d27e97f" x="674.550888" y="216.669681" style="fill: #482475; fill-opacity: 0.8; stroke: #ffffff; stroke-opacity: 0.8; stroke-width: 0.619677"/>
    </g>
    <g clip-path="url(#pa2ccc00465)">
     <use xlink:href="#C0_0_f95d27e97f" x="126.9" y="195.510148" style="fill: #414487; fill-opacity: 0.8; stroke: #ffffff; stroke-opacity: 0.8; stroke-width: 0.619677"/>
    </g>
    <g clip-path="url(#pa2ccc00465)">
     <use xlink:href="#C0_0_f95d27e97f" x="601.923913" y="133.318445" style="fill: #482475; fill-opacity: 0.8; stroke: #ffffff; stroke-opacity: 0.8; stroke-width: 0.619677"/>
    </g>
    <g clip-path="url(#pa2ccc00465)">
     <use xlink:href="#C0_0_f95d27e97f" x="444.719903" y="204.913307" style="fill: #482475; fill-opacity: 0.8; stroke: #ffffff; stroke-opacity: 0.8; stroke-width: 0.619677"/>
    </g>
    <g clip-path="url(#pa2ccc00465)">
     <use xlink:href="#C0_0_f95d27e97f" x="678.344306" y="244.930611" style="fill: #482475; fill-opacity: 0.8; stroke: #ffffff; stroke-opacity: 0.8; stroke-width: 0.619677"/>
    </g>
    <g clip-path="url(#pa2ccc00465)">
     <use xlink:href="#C0_0_f95d27e97f" x="374.56776" y="357.724397" style="fill: #414487; fill-opacity: 0.8; stroke: #ffffff; stroke-opacity: 0.8; stroke-width: 0.619677"/>
    </g>
    <g clip-path="url(#pa2ccc00465)">
     <use xlink:href="#C0_0_f95d27e97f" x="607.377685" y="88.385032" style="fill: #482475; fill-opacity: 0.8; stroke: #ffffff; stroke-opacity: 0.8; stroke-width: 0.619677"/>
    </g>
    <g clip-path="url(#pa2ccc00465)">
     <use xlink:href="#C0_0_f95d27e97f" x="679.468983" y="183.558995" style="fill: #482475; fill-opacity: 0.8; stroke: #ffffff; stroke-opacity: 0.8; stroke-width: 0.619677"/>
    </g>
    <g clip-path="url(#pa2ccc00465)">
     <use xlink:href="#C0_0_f95d27e97f" x="577.144661" y="90.249184" style="fill: #482475; fill-opacity: 0.8; stroke: #ffffff; stroke-opacity: 0.8; stroke-width: 0.619677"/>
    </g>
    <g clip-path="url(#pa2ccc00465)">
     <use xlink:href="#C0_0_f95d27e97f" x="356.431795" y="353.692452" style="fill: #414487; fill-opacity: 0.8; stroke: #ffffff; stroke-opacity: 0.8; stroke-width: 0.619677"/>
    </g>
    <g clip-path="url(#pa2ccc00465)">
     <use xlink:href="#C0_0_f95d27e97f" x="679.617348" y="245.598912" style="fill: #482475; fill-opacity: 0.8; stroke: #ffffff; stroke-opacity: 0.8; stroke-width: 0.619677"/>
    </g>
    <g clip-path="url(#pa2ccc00465)">
     <use xlink:href="#C0_0_f95d27e97f" x="454.987016" y="205.302084" style="fill: #482475; fill-opacity: 0.8; stroke: #ffffff; stroke-opacity: 0.8; stroke-width: 0.619677"/>
    </g>
    <g clip-path="url(#pa2ccc00465)">
     <use xlink:href="#C0_0_f95d27e97f" x="431.866206" y="233.617273" style="fill: #21918c; fill-opacity: 0.8; stroke: #ffffff; stroke-opacity: 0.8; stroke-width: 0.619677"/>
    </g>
    <g clip-path="url(#pa2ccc00465)">
     <use xlink:href="#C0_0_f95d27e97f" x="358.711922" y="333.257065" style="fill: #22a884; fill-opacity: 0.8; stroke: #ffffff; stroke-opacity: 0.8; stroke-width: 0.619677"/>
    </g>
    <g clip-path="url(#pa2ccc00465)">
     <use xlink:href="#C0_0_f95d27e97f" x="595.698935" y="97.13088" style="fill: #482475; fill-opacity: 0.8; stroke: #ffffff; stroke-opacity: 0.8; stroke-width: 0.619677"/>
    </g>
    <g clip-path="url(#pa2ccc00465)">
     <use xlink:href="#C0_0_f95d27e97f" x="346.151325" y="271.209768" style="fill: #355f8d; fill-opacity: 0.8; stroke: #ffffff; stroke-opacity: 0.8; stroke-width: 0.619677"/>
    </g>
    <g clip-path="url(#pa2ccc00465)">
     <use xlink:href="#C0_0_f95d27e97f" x="449.932411" y="232.41103" style="fill: #482475; fill-opacity: 0.8; stroke: #ffffff; stroke-opacity: 0.8; stroke-width: 0.619677"/>
    </g>
    <g clip-path="url(#pa2ccc00465)">
     <use xlink:href="#C0_0_f95d27e97f" x="132.991595" y="202.633433" style="fill: #22a884; fill-opacity: 0.8; stroke: #ffffff; stroke-opacity: 0.8; stroke-width: 0.619677"/>
    </g>
    <g clip-path="url(#pa2ccc00465)">
     <use xlink:href="#C0_0_f95d27e97f" x="684.868764" y="197.679206" style="fill: #482475; fill-opacity: 0.8; stroke: #ffffff; stroke-opacity: 0.8; stroke-width: 0.619677"/>
    </g>
    <g clip-path="url(#pa2ccc00465)">
     <use xlink:href="#C0_0_f95d27e97f" x="626.69975" y="111.347561" style="fill: #482475; fill-opacity: 0.8; stroke: #ffffff; stroke-opacity: 0.8; stroke-width: 0.619677"/>
    </g>
    <g clip-path="url(#pa2ccc00465)">
     <use xlink:href="#C0_0_f95d27e97f" x="617.16799" y="120.798219" style="fill: #482475; fill-opacity: 0.8; stroke: #ffffff; stroke-opacity: 0.8; stroke-width: 0.619677"/>
    </g>
    <g clip-path="url(#pa2ccc00465)">
     <use xlink:href="#C0_0_f95d27e97f" x="651.743366" y="186.583913" style="fill: #482475; fill-opacity: 0.8; stroke: #ffffff; stroke-opacity: 0.8; stroke-width: 0.619677"/>
    </g>
    <g clip-path="url(#pa2ccc00465)">
     <use xlink:href="#C0_0_f95d27e97f" x="550.336098" y="90.633685" style="fill: #482475; fill-opacity: 0.8; stroke: #ffffff; stroke-opacity: 0.8; stroke-width: 0.619677"/>
    </g>
    <g clip-path="url(#pa2ccc00465)">
     <use xlink:href="#C0_0_f95d27e97f" x="360.697114" y="362.270466" style="fill: #414487; fill-opacity: 0.8; stroke: #ffffff; stroke-opacity: 0.8; stroke-width: 0.619677"/>
    </g>
    <g clip-path="url(#pa2ccc00465)">
     <use xlink:href="#C0_0_f95d27e97f" x="673.100706" y="169.128544" style="fill: #482475; fill-opacity: 0.8; stroke: #ffffff; stroke-opacity: 0.8; stroke-width: 0.619677"/>
    </g>
    <g clip-path="url(#pa2ccc00465)">
     <use xlink:href="#C0_0_f95d27e97f" x="554.243865" y="92.38141" style="fill: #482475; fill-opacity: 0.8; stroke: #ffffff; stroke-opacity: 0.8; stroke-width: 0.619677"/>
    </g>
    <g clip-path="url(#pa2ccc00465)">
     <use xlink:href="#C0_0_f95d27e97f" x="588.129469" y="75.388757" style="fill: #482475; fill-opacity: 0.8; stroke: #ffffff; stroke-opacity: 0.8; stroke-width: 0.619677"/>
    </g>
    <g clip-path="url(#pa2ccc00465)">
     <use xlink:href="#C0_0_f95d27e97f" x="554.406762" y="139.219163" style="fill: #482475; fill-opacity: 0.8; stroke: #ffffff; stroke-opacity: 0.8; stroke-width: 0.619677"/>
    </g>
    <g clip-path="url(#pa2ccc00465)">
     <use xlink:href="#C0_0_f95d27e97f" x="131.326639" y="192.478516" style="fill: #414487; fill-opacity: 0.8; stroke: #ffffff; stroke-opacity: 0.8; stroke-width: 0.619677"/>
    </g>
    <g clip-path="url(#pa2ccc00465)">
     <use xlink:href="#C0_0_f95d27e97f" x="417.259331" y="225.388353" style="fill: #355f8d; fill-opacity: 0.8; stroke: #ffffff; stroke-opacity: 0.8; stroke-width: 0.619677"/>
    </g>
    <g clip-path="url(#pa2ccc00465)">
     <use xlink:href="#C0_0_f95d27e97f" x="559.248026" y="97.47225" style="fill: #482475; fill-opacity: 0.8; stroke: #ffffff; stroke-opacity: 0.8; stroke-width: 0.619677"/>
    </g>
    <g clip-path="url(#pa2ccc00465)">
     <use xlink:href="#C0_0_f95d27e97f" x="402.344899" y="222.764857" style="fill: #21918c; fill-opacity: 0.8; stroke: #ffffff; stroke-opacity: 0.8; stroke-width: 0.619677"/>
    </g>
    <g clip-path="url(#pa2ccc00465)">
     <use xlink:href="#C0_0_f95d27e97f" x="472.237852" y="192.699091" style="fill: #482475; fill-opacity: 0.8; stroke: #ffffff; stroke-opacity: 0.8; stroke-width: 0.619677"/>
    </g>
    <g clip-path="url(#pa2ccc00465)">
     <use xlink:href="#C0_0_f95d27e97f" x="461.917443" y="182.910098" style="fill: #482475; fill-opacity: 0.8; stroke: #ffffff; stroke-opacity: 0.8; stroke-width: 0.619677"/>
    </g>
    <g clip-path="url(#pa2ccc00465)">
     <use xlink:href="#C0_0_f95d27e97f" x="652.705638" y="196.535544" style="fill: #482475; fill-opacity: 0.8; stroke: #ffffff; stroke-opacity: 0.8; stroke-width: 0.619677"/>
    </g>
    <g clip-path="url(#pa2ccc00465)">
     <use xlink:href="#C0_0_f95d27e97f" x="128.94723" y="195.938377" style="fill: #7ad151; fill-opacity: 0.8; stroke: #ffffff; stroke-opacity: 0.8; stroke-width: 0.619677"/>
    </g>
    <g clip-path="url(#pa2ccc00465)">
     <use xlink:href="#C0_0_f95d27e97f" x="680.522445" y="195.378226" style="fill: #482475; fill-opacity: 0.8; stroke: #ffffff; stroke-opacity: 0.8; stroke-width: 0.619677"/>
    </g>
    <g clip-path="url(#pa2ccc00465)">
     <use xlink:href="#C0_0_f95d27e97f" x="648.787681" y="192.930242" style="fill: #482475; fill-opacity: 0.8; stroke: #ffffff; stroke-opacity: 0.8; stroke-width: 0.619677"/>
    </g>
    <g clip-path="url(#pa2ccc00465)">
     <use xlink:href="#C0_0_f95d27e97f" x="452.249521" y="189.017827" style="fill: #482475; fill-opacity: 0.8; stroke: #ffffff; stroke-opacity: 0.8; stroke-width: 0.619677"/>
    </g>
    <g clip-path="url(#pa2ccc00465)">
     <use xlink:href="#C0_0_f95d27e97f" x="361.880623" y="357.743342" style="fill: #414487; fill-opacity: 0.8; stroke: #ffffff; stroke-opacity: 0.8; stroke-width: 0.619677"/>
    </g>
    <g clip-path="url(#pa2ccc00465)">
     <use xlink:href="#C0_0_f95d27e97f" x="621.055493" y="117.426367" style="fill: #482475; fill-opacity: 0.8; stroke: #ffffff; stroke-opacity: 0.8; stroke-width: 0.619677"/>
    </g>
    <g clip-path="url(#pa2ccc00465)">
     <use xlink:href="#C0_0_f95d27e97f" x="680.156874" y="239.361192" style="fill: #482475; fill-opacity: 0.8; stroke: #ffffff; stroke-opacity: 0.8; stroke-width: 0.619677"/>
    </g>
    <g clip-path="url(#pa2ccc00465)">
     <use xlink:href="#C0_0_f95d27e97f" x="404.983953" y="247.897731" style="fill: #414487; fill-opacity: 0.8; stroke: #ffffff; stroke-opacity: 0.8; stroke-width: 0.619677"/>
    </g>
    <g clip-path="url(#pa2ccc00465)">
     <use xlink:href="#C0_0_f95d27e97f" x="547.021702" y="142.75586" style="fill: #482475; fill-opacity: 0.8; stroke: #ffffff; stroke-opacity: 0.8; stroke-width: 0.619677"/>
    </g>
    <g clip-path="url(#pa2ccc00465)">
     <use xlink:href="#C0_0_f95d27e97f" x="367.247301" y="328.623424" style="fill: #21918c; fill-opacity: 0.8; stroke: #ffffff; stroke-opacity: 0.8; stroke-width: 0.619677"/>
    </g>
    <g clip-path="url(#pa2ccc00465)">
     <use xlink:href="#C0_0_f95d27e97f" x="603.866637" y="78.699591" style="fill: #482475; fill-opacity: 0.8; stroke: #ffffff; stroke-opacity: 0.8; stroke-width: 0.619677"/>
    </g>
    <g clip-path="url(#pa2ccc00465)">
     <use xlink:href="#C0_0_f95d27e97f" x="148.173271" y="191.785201" style="fill: #2a788e; fill-opacity: 0.8; stroke: #ffffff; stroke-opacity: 0.8; stroke-width: 0.619677"/>
    </g>
    <g clip-path="url(#pa2ccc00465)">
     <use xlink:href="#C0_0_f95d27e97f" x="457.153648" y="208.269341" style="fill: #482475; fill-opacity: 0.8; stroke: #ffffff; stroke-opacity: 0.8; stroke-width: 0.619677"/>
    </g>
    <g clip-path="url(#pa2ccc00465)">
     <use xlink:href="#C0_0_f95d27e97f" x="648.027503" y="187.480422" style="fill: #482475; fill-opacity: 0.8; stroke: #ffffff; stroke-opacity: 0.8; stroke-width: 0.619677"/>
    </g>
    <g clip-path="url(#pa2ccc00465)">
     <use xlink:href="#C0_0_f95d27e97f" x="354.839017" y="271.207032" style="fill: #355f8d; fill-opacity: 0.8; stroke: #ffffff; stroke-opacity: 0.8; stroke-width: 0.619677"/>
    </g>
    <g clip-path="url(#pa2ccc00465)">
     <use xlink:href="#C0_0_f95d27e97f" x="147.852847" y="190.474487" style="fill: #2a788e; fill-opacity: 0.8; stroke: #ffffff; stroke-opacity: 0.8; stroke-width: 0.619677"/>
    </g>
    <g clip-path="url(#pa2ccc00465)">
     <use xlink:href="#C0_0_f95d27e97f" x="547.63945" y="79.189298" style="fill: #482475; fill-opacity: 0.8; stroke: #ffffff; stroke-opacity: 0.8; stroke-width: 0.619677"/>
    </g>
    <g clip-path="url(#pa2ccc00465)">
     <use xlink:href="#C0_0_f95d27e97f" x="457.893459" y="224.098791" style="fill: #482475; fill-opacity: 0.8; stroke: #ffffff; stroke-opacity: 0.8; stroke-width: 0.619677"/>
    </g>
    <g clip-path="url(#pa2ccc00465)">
     <use xlink:href="#C0_0_f95d27e97f" x="586.161385" y="73.039864" style="fill: #482475; fill-opacity: 0.8; stroke: #ffffff; stroke-opacity: 0.8; stroke-width: 0.619677"/>
    </g>
    <g clip-path="url(#pa2ccc00465)">
     <use xlink:href="#C0_0_f95d27e97f" x="407.922761" y="231.704748" style="fill: #21918c; fill-opacity: 0.8; stroke: #ffffff; stroke-opacity: 0.8; stroke-width: 0.619677"/>
    </g>
    <g clip-path="url(#pa2ccc00465)">
     <use xlink:href="#C0_0_f95d27e97f" x="596.453468" y="66.96" style="fill: #482475; fill-opacity: 0.8; stroke: #ffffff; stroke-opacity: 0.8; stroke-width: 0.619677"/>
    </g>
    <g clip-path="url(#pa2ccc00465)">
     <use xlink:href="#C0_0_f95d27e97f" x="355.296675" y="340.406054" style="fill: #22a884; fill-opacity: 0.8; stroke: #ffffff; stroke-opacity: 0.8; stroke-width: 0.619677"/>
    </g>
    <g clip-path="url(#pa2ccc00465)">
     <use xlink:href="#C0_0_f95d27e97f" x="443.507741" y="210.257966" style="fill: #482475; fill-opacity: 0.8; stroke: #ffffff; stroke-opacity: 0.8; stroke-width: 0.619677"/>
    </g>
    <g clip-path="url(#pa2ccc00465)">
     <use xlink:href="#C0_0_f95d27e97f" x="387.248912" y="274.565641" style="fill: #414487; fill-opacity: 0.8; stroke: #ffffff; stroke-opacity: 0.8; stroke-width: 0.619677"/>
    </g>
    <g clip-path="url(#pa2ccc00465)">
     <use xlink:href="#C0_0_f95d27e97f" x="556.555836" y="74.929857" style="fill: #482475; fill-opacity: 0.8; stroke: #ffffff; stroke-opacity: 0.8; stroke-width: 0.619677"/>
    </g>
    <g clip-path="url(#pa2ccc00465)">
     <use xlink:href="#C0_0_f95d27e97f" x="602.533034" y="114.763602" style="fill: #482475; fill-opacity: 0.8; stroke: #ffffff; stroke-opacity: 0.8; stroke-width: 0.619677"/>
    </g>
    <g clip-path="url(#pa2ccc00465)">
     <use xlink:href="#C0_0_f95d27e97f" x="602.541284" y="75.667499" style="fill: #482475; fill-opacity: 0.8; stroke: #ffffff; stroke-opacity: 0.8; stroke-width: 0.619677"/>
    </g>
    <g clip-path="url(#pa2ccc00465)">
     <use xlink:href="#C0_0_f95d27e97f" x="573.70616" y="67.294932" style="fill: #482475; fill-opacity: 0.8; stroke: #ffffff; stroke-opacity: 0.8; stroke-width: 0.619677"/>
    </g>
    <g clip-path="url(#pa2ccc00465)">
     <use xlink:href="#C0_0_f95d27e97f" x="362.615043" y="274.580562" style="fill: #355f8d; fill-opacity: 0.8; stroke: #ffffff; stroke-opacity: 0.8; stroke-width: 0.619677"/>
    </g>
    <g clip-path="url(#pa2ccc00465)">
     <use xlink:href="#C0_0_f95d27e97f" x="370.791061" y="351.415061" style="fill: #414487; fill-opacity: 0.8; stroke: #ffffff; stroke-opacity: 0.8; stroke-width: 0.619677"/>
    </g>
    <g clip-path="url(#pa2ccc00465)">
     <use xlink:href="#C0_0_f95d27e97f" x="380.687696" y="278.98165" style="fill: #bddf26; fill-opacity: 0.8; stroke: #ffffff; stroke-opacity: 0.8; stroke-width: 0.619677"/>
    </g>
    <g clip-path="url(#pa2ccc00465)">
     <use xlink:href="#C0_0_f95d27e97f" x="650.902073" y="194.775495" style="fill: #482475; fill-opacity: 0.8; stroke: #ffffff; stroke-opacity: 0.8; stroke-width: 0.619677"/>
    </g>
    <g clip-path="url(#pa2ccc00465)">
     <use xlink:href="#C0_0_f95d27e97f" x="680.947188" y="187.987878" style="fill: #482475; fill-opacity: 0.8; stroke: #ffffff; stroke-opacity: 0.8; stroke-width: 0.619677"/>
    </g>
    <g clip-path="url(#pa2ccc00465)">
     <use xlink:href="#C0_0_f95d27e97f" x="445.221535" y="193.73396" style="fill: #482475; fill-opacity: 0.8; stroke: #ffffff; stroke-opacity: 0.8; stroke-width: 0.619677"/>
    </g>
    <g clip-path="url(#pa2ccc00465)">
     <use xlink:href="#C0_0_f95d27e97f" x="451.943296" y="236.636995" style="fill: #482475; fill-opacity: 0.8; stroke: #ffffff; stroke-opacity: 0.8; stroke-width: 0.619677"/>
    </g>
    <g clip-path="url(#pa2ccc00465)">
     <use xlink:href="#C0_0_f95d27e97f" x="684.9" y="202.576231" style="fill: #482475; fill-opacity: 0.8; stroke: #ffffff; stroke-opacity: 0.8; stroke-width: 0.619677"/>
    </g>
    <g clip-path="url(#pa2ccc00465)">
     <use xlink:href="#C0_0_f95d27e97f" x="555.229181" y="108.743239" style="fill: #482475; fill-opacity: 0.8; stroke: #ffffff; stroke-opacity: 0.8; stroke-width: 0.619677"/>
    </g>
    <g clip-path="url(#pa2ccc00465)">
     <use xlink:href="#C0_0_f95d27e97f" x="454.659224" y="225.048685" style="fill: #482475; fill-opacity: 0.8; stroke: #ffffff; stroke-opacity: 0.8; stroke-width: 0.619677"/>
    </g>
    <g clip-path="url(#pa2ccc00465)">
     <use xlink:href="#C0_0_f95d27e97f" x="591.437061" y="123.319728" style="fill: #482475; fill-opacity: 0.8; stroke: #ffffff; stroke-opacity: 0.8; stroke-width: 0.619677"/>
    </g>
    <g clip-path="url(#pa2ccc00465)">
     <use xlink:href="#C0_0_f95d27e97f" x="684.412148" y="209.241536" style="fill: #482475; fill-opacity: 0.8; stroke: #ffffff; stroke-opacity: 0.8; stroke-width: 0.619677"/>
    </g>
    <g clip-path="url(#pa2ccc00465)">
     <use xlink:href="#C0_0_f95d27e97f" x="612.98616" y="86.587784" style="fill: #482475; fill-opacity: 0.8; stroke: #ffffff; stroke-opacity: 0.8; stroke-width: 0.619677"/>
    </g>
    <g clip-path="url(#pa2ccc00465)">
     <use xlink:href="#C0_0_f95d27e97f" x="126.952326" y="198.376521" style="fill: #414487; fill-opacity: 0.8; stroke: #ffffff; stroke-opacity: 0.8; stroke-width: 0.619677"/>
    </g>
    <g clip-path="url(#pa2ccc00465)">
     <use xlink:href="#C0_0_f95d27e97f" x="364.63137" y="368.876156" style="fill: #414487; fill-opacity: 0.8; stroke: #ffffff; stroke-opacity: 0.8; stroke-width: 0.619677"/>
    </g>
    <g clip-path="url(#pa2ccc00465)">
     <use xlink:href="#C0_0_f95d27e97f" x="449.063197" y="197.43964" style="fill: #482475; fill-opacity: 0.8; stroke: #ffffff; stroke-opacity: 0.8; stroke-width: 0.619677"/>
    </g>
   </g>
   <g id="matplotlib.axis_1">
    <g id="xtick_1">
     <g id="line2d_1">
      <defs>
       <path id="m432054e482" d="M 0 0 
L 0 3.5 
" style="stroke: #000000; stroke-width: 0.8"/>
      </defs>
      <g>
       <use xlink:href="#m432054e482" x="138.645405" y="384.48" style="stroke: #000000; stroke-width: 0.8"/>
      </g>
     </g>
     <g id="text_1">
      <!-- $\mathdefault{−5.0}$ -->
      <g transform="translate(126.517294 399.832665) scale(0.12 -0.12)">
       <defs>
        <path id="LMMathSymbols10-Regular-0" d="M 4442 1600 
C 4442 1728 4320 1728 4230 1728 
L 742 1728 
C 653 1728 531 1728 531 1600 
C 531 1472 653 1472 742 1472 
L 4230 1472 
C 4320 1472 4442 1472 4442 1600 
z
" transform="scale(0.015625)"/>
        <path id="LMRoman17-Regular-35" d="M 2669 1264 
C 2669 2030 2170 2624 1549 2624 
C 1222 2624 947 2503 730 2274 
L 730 3692 
C 794 3666 1056 3584 1325 3584 
C 1920 3584 2246 3911 2432 4100 
C 2432 4157 2432 4192 2394 4192 
C 2394 4192 2374 4192 2323 4163 
C 2099 4058 1837 3973 1517 3973 
C 1325 3973 1037 3999 723 4139 
C 653 4171 634 4171 634 4171 
C 602 4171 595 4164 595 4037 
L 595 2203 
C 595 2089 595 2057 659 2057 
C 691 2057 704 2070 736 2114 
C 941 2401 1222 2522 1542 2522 
C 1766 2522 2246 2382 2246 1289 
C 2246 1085 2246 715 2054 421 
C 1894 159 1645 25 1370 25 
C 947 25 518 320 403 814 
C 429 807 480 795 506 795 
C 589 795 749 840 749 1038 
C 749 1210 627 1280 506 1280 
C 358 1280 262 1190 262 1011 
C 262 454 704 -128 1382 -128 
C 2042 -128 2669 440 2669 1264 
z
" transform="scale(0.015625)"/>
        <path id="LMMathItalic12-Regular-3a" d="M 1178 307 
C 1178 492 1024 619 870 619 
C 685 619 557 466 557 313 
C 557 128 710 0 864 0 
C 1050 0 1178 153 1178 307 
z
" transform="scale(0.015625)"/>
        <path id="LMRoman17-Regular-30" d="M 2688 2025 
C 2688 2416 2682 3080 2413 3591 
C 2176 4039 1798 4198 1466 4198 
C 1158 4198 768 4058 525 3597 
C 269 3118 243 2524 243 2025 
C 243 1661 250 1106 448 619 
C 723 -39 1216 -128 1466 -128 
C 1760 -128 2208 -7 2470 600 
C 2662 1042 2688 1559 2688 2025 
z
M 2278 2096 
C 2278 1680 2278 1169 2202 792 
C 2067 95 1690 -26 1466 -26 
C 1056 -26 813 325 723 812 
C 653 1188 653 1738 653 2096 
C 653 2588 653 2997 736 3387 
C 858 3929 1216 4096 1466 4096 
C 1728 4096 2067 3923 2189 3400 
C 2272 3036 2278 2607 2278 2096 
z
" transform="scale(0.015625)"/>
       </defs>
       <use xlink:href="#LMMathSymbols10-Regular-0" transform="scale(0.996264)"/>
       <use xlink:href="#LMRoman17-Regular-35" transform="translate(77.487468 0) scale(0.996264)"/>
       <use xlink:href="#LMMathItalic12-Regular-3a" transform="translate(123.178416 0) scale(0.996264)"/>
       <use xlink:href="#LMRoman17-Regular-30" transform="translate(150.275593 0) scale(0.996264)"/>
      </g>
     </g>
    </g>
    <g id="xtick_2">
     <g id="line2d_2">
      <g>
       <use xlink:href="#m432054e482" x="214.534029" y="384.48" style="stroke: #000000; stroke-width: 0.8"/>
      </g>
     </g>
     <g id="text_2">
      <!-- $\mathdefault{−2.5}$ -->
      <g transform="translate(202.405918 399.832665) scale(0.12 -0.12)">
       <defs>
        <path id="LMRoman17-Regular-32" d="M 2669 989 
L 2554 989 
C 2490 536 2438 459 2413 420 
C 2381 369 1920 369 1830 369 
L 602 369 
L 1824 1597 
C 2214 1967 2669 2402 2669 3035 
C 2669 3790 2067 4224 1395 4224 
C 691 4224 262 3604 262 3030 
C 262 2780 448 2748 525 2748 
C 589 2748 781 2787 781 3010 
C 781 3207 614 3264 525 3264 
C 486 3264 448 3258 422 3245 
C 544 3790 915 4058 1306 4058 
C 1862 4058 2227 3617 2227 3035 
C 2227 2479 1901 2000 1536 1584 
L 262 146 
L 262 0 
L 2515 0 
L 2669 989 
z
" transform="scale(0.015625)"/>
       </defs>
       <use xlink:href="#LMMathSymbols10-Regular-0" transform="scale(0.996264)"/>
       <use xlink:href="#LMRoman17-Regular-32" transform="translate(77.487468 0) scale(0.996264)"/>
       <use xlink:href="#LMMathItalic12-Regular-3a" transform="translate(123.178416 0) scale(0.996264)"/>
       <use xlink:href="#LMRoman17-Regular-35" transform="translate(150.275593 0) scale(0.996264)"/>
      </g>
     </g>
    </g>
    <g id="xtick_3">
     <g id="line2d_3">
      <g>
       <use xlink:href="#m432054e482" x="290.422654" y="384.48" style="stroke: #000000; stroke-width: 0.8"/>
      </g>
     </g>
     <g id="text_3">
      <!-- $\mathdefault{0.0}$ -->
      <g transform="translate(282.943787 399.832665) scale(0.12 -0.12)">
       <use xlink:href="#LMRoman17-Regular-30" transform="scale(0.996264)"/>
       <use xlink:href="#LMMathItalic12-Regular-3a" transform="translate(45.690948 0) scale(0.996264)"/>
       <use xlink:href="#LMRoman17-Regular-30" transform="translate(72.788125 0) scale(0.996264)"/>
      </g>
     </g>
    </g>
    <g id="xtick_4">
     <g id="line2d_4">
      <g>
       <use xlink:href="#m432054e482" x="366.311278" y="384.48" style="stroke: #000000; stroke-width: 0.8"/>
      </g>
     </g>
     <g id="text_4">
      <!-- $\mathdefault{2.5}$ -->
      <g transform="translate(358.832412 399.832665) scale(0.12 -0.12)">
       <use xlink:href="#LMRoman17-Regular-32" transform="scale(0.996264)"/>
       <use xlink:href="#LMMathItalic12-Regular-3a" transform="translate(45.690948 0) scale(0.996264)"/>
       <use xlink:href="#LMRoman17-Regular-35" transform="translate(72.788125 0) scale(0.996264)"/>
      </g>
     </g>
    </g>
    <g id="xtick_5">
     <g id="line2d_5">
      <g>
       <use xlink:href="#m432054e482" x="442.199903" y="384.48" style="stroke: #000000; stroke-width: 0.8"/>
      </g>
     </g>
     <g id="text_5">
      <!-- $\mathdefault{5.0}$ -->
      <g transform="translate(434.721036 399.832665) scale(0.12 -0.12)">
       <use xlink:href="#LMRoman17-Regular-35" transform="scale(0.996264)"/>
       <use xlink:href="#LMMathItalic12-Regular-3a" transform="translate(45.690948 0) scale(0.996264)"/>
       <use xlink:href="#LMRoman17-Regular-30" transform="translate(72.788125 0) scale(0.996264)"/>
      </g>
     </g>
    </g>
    <g id="xtick_6">
     <g id="line2d_6">
      <g>
       <use xlink:href="#m432054e482" x="518.088527" y="384.48" style="stroke: #000000; stroke-width: 0.8"/>
      </g>
     </g>
     <g id="text_6">
      <!-- $\mathdefault{7.5}$ -->
      <g transform="translate(510.609661 399.832665) scale(0.12 -0.12)">
       <defs>
        <path id="LMRoman17-Regular-37" d="M 2886 3941 
L 2886 4081 
L 1382 4081 
C 634 4081 621 4165 595 4288 
L 480 4288 
L 294 3094 
L 410 3094 
C 429 3215 474 3540 550 3661 
C 589 3712 1062 3712 1171 3712 
L 2579 3712 
L 1869 2661 
C 1395 1954 1069 999 1069 165 
C 1069 89 1069 -128 1299 -128 
C 1530 -128 1530 89 1530 171 
L 1530 465 
C 1530 1508 1709 2196 2003 2636 
L 2886 3941 
z
" transform="scale(0.015625)"/>
       </defs>
       <use xlink:href="#LMRoman17-Regular-37" transform="scale(0.996264)"/>
       <use xlink:href="#LMMathItalic12-Regular-3a" transform="translate(45.690948 0) scale(0.996264)"/>
       <use xlink:href="#LMRoman17-Regular-35" transform="translate(72.788125 0) scale(0.996264)"/>
      </g>
     </g>
    </g>
    <g id="xtick_7">
     <g id="line2d_7">
      <g>
       <use xlink:href="#m432054e482" x="593.977152" y="384.48" style="stroke: #000000; stroke-width: 0.8"/>
      </g>
     </g>
     <g id="text_7">
      <!-- $\mathdefault{10.0}$ -->
      <g transform="translate(583.571767 399.832665) scale(0.12 -0.12)">
       <defs>
        <path id="LMRoman17-Regular-31" d="M 2458 0 
L 2458 160 
L 2266 160 
C 1715 160 1702 230 1702 458 
L 1702 4058 
C 1702 4192 1696 4192 1606 4192 
C 1357 3916 979 3827 621 3827 
C 602 3827 570 3827 563 3808 
C 557 3795 557 3782 557 3648 
C 755 3648 1088 3686 1344 3839 
L 1344 461 
C 1344 236 1331 160 781 160 
L 589 160 
L 589 0 
L 1523 0 
L 2458 0 
z
" transform="scale(0.015625)"/>
       </defs>
       <use xlink:href="#LMRoman17-Regular-31" transform="scale(0.996264)"/>
       <use xlink:href="#LMRoman17-Regular-30" transform="translate(45.690948 0) scale(0.996264)"/>
       <use xlink:href="#LMMathItalic12-Regular-3a" transform="translate(91.381897 0) scale(0.996264)"/>
       <use xlink:href="#LMRoman17-Regular-30" transform="translate(118.479074 0) scale(0.996264)"/>
      </g>
     </g>
    </g>
    <g id="xtick_8">
     <g id="line2d_8">
      <g>
       <use xlink:href="#m432054e482" x="669.865776" y="384.48" style="stroke: #000000; stroke-width: 0.8"/>
      </g>
     </g>
     <g id="text_8">
      <!-- $\mathdefault{12.5}$ -->
      <g transform="translate(659.460392 399.832665) scale(0.12 -0.12)">
       <use xlink:href="#LMRoman17-Regular-31" transform="scale(0.996264)"/>
       <use xlink:href="#LMRoman17-Regular-32" transform="translate(45.690948 0) scale(0.996264)"/>
       <use xlink:href="#LMMathItalic12-Regular-3a" transform="translate(91.381897 0) scale(0.996264)"/>
       <use xlink:href="#LMRoman17-Regular-35" transform="translate(118.479074 0) scale(0.996264)"/>
      </g>
     </g>
    </g>
    <g id="text_9">
     <!-- UMAP Dimension 1 -->
     <g transform="translate(354.010928 414.509926) scale(0.12 -0.12)">
      <defs>
       <path id="LMRoman17-Regular-55" d="M 4102 4160 
L 4102 4326 
C 3955 4313 3686 4313 3526 4313 
C 3366 4313 3091 4313 2944 4326 
L 2944 4160 
C 3456 4160 3456 3861 3456 3702 
L 3456 1433 
C 3456 579 2899 38 2291 38 
C 1965 38 1670 210 1491 477 
C 1286 783 1261 1178 1261 1401 
L 1261 3874 
C 1261 4160 1331 4160 1773 4160 
L 1773 4313 
C 1587 4313 1248 4313 1050 4313 
C 851 4313 512 4313 326 4313 
L 326 4160 
C 768 4160 838 4160 838 3874 
L 838 1433 
C 838 516 1536 -128 2278 -128 
C 3110 -128 3590 719 3590 1344 
L 3590 3766 
C 3590 4122 3917 4160 4102 4160 
z
" transform="scale(0.015625)"/>
       <path id="LMRoman17-Regular-4d" d="M 5094 -13 
L 5094 153 
C 4653 153 4582 153 4582 438 
L 4582 3875 
C 4582 4160 4653 4160 5094 4160 
L 5094 4326 
L 4282 4326 
C 4147 4326 4141 4320 4102 4224 
L 2720 502 
L 1338 4230 
C 1299 4326 1293 4326 1158 4326 
L 339 4326 
L 339 4160 
C 781 4160 851 4160 851 3875 
L 851 610 
C 851 451 851 153 339 153 
L 339 -13 
C 486 0 755 0 915 0 
C 1075 0 1344 0 1491 -13 
L 1491 153 
C 979 153 979 451 979 610 
L 979 4135 
L 986 4135 
L 2490 89 
C 2515 25 2528 -13 2579 -13 
C 2630 -13 2643 25 2669 89 
L 4186 4166 
L 4192 4166 
L 4192 438 
C 4192 153 4122 153 3680 153 
L 3680 -13 
C 3853 0 4198 0 4384 0 
C 4570 0 4922 0 5094 -13 
z
" transform="scale(0.015625)"/>
       <path id="LMRoman17-Regular-41" d="M 4282 -13 
L 4282 153 
C 3942 153 3827 153 3744 387 
L 2323 4378 
C 2291 4461 2278 4480 2214 4480 
C 2150 4480 2138 4461 2106 4378 
L 749 566 
C 627 223 371 153 147 153 
L 147 -13 
C 262 0 518 0 640 0 
C 800 0 1056 0 1210 -13 
L 1210 153 
C 909 153 864 361 864 439 
C 864 497 877 530 890 569 
L 1229 1536 
L 2906 1536 
L 3290 442 
C 3322 365 3322 352 3322 327 
C 3322 153 3046 153 2925 153 
L 2925 0 
C 3110 0 3443 0 3642 0 
C 3808 0 4128 0 4282 -13 
z
M 2848 1702 
L 1286 1702 
L 2067 3874 
L 2848 1702 
z
" transform="scale(0.015625)"/>
       <path id="LMRoman17-Regular-50" d="M 3718 3184 
C 3718 3791 3130 4352 2291 4352 
L 333 4352 
L 333 4186 
C 774 4186 845 4186 845 3899 
L 845 446 
C 845 160 774 160 333 160 
L 333 0 
C 518 0 858 0 1056 0 
C 1254 0 1594 0 1779 0 
L 1779 160 
C 1338 160 1267 160 1267 446 
L 1267 2042 
L 2291 2042 
C 3117 2042 3718 2578 3718 3184 
z
M 3232 3184 
C 3232 2604 2950 2176 2170 2176 
L 1254 2176 
L 1254 3938 
C 1254 4155 1267 4186 1523 4186 
L 2170 4186 
C 2995 4186 3232 3714 3232 3184 
z
" transform="scale(0.015625)"/>
       <path id="LMRoman17-Regular-44" d="M 4224 2141 
C 4224 3346 3411 4352 2368 4352 
L 333 4352 
L 333 4186 
C 774 4186 845 4186 845 3900 
L 845 452 
C 845 166 774 166 333 166 
L 333 0 
L 2368 0 
C 3398 0 4224 943 4224 2141 
z
M 3750 2141 
C 3750 1242 3488 879 3366 707 
C 3213 510 2848 166 2240 166 
L 1523 166 
C 1267 166 1254 197 1254 414 
L 1254 3938 
C 1254 4155 1267 4186 1523 4186 
L 2240 4186 
C 2771 4186 3750 3874 3750 2141 
z
" transform="scale(0.015625)"/>
       <path id="LMRoman17-Regular-69" d="M 1370 -13 
L 1370 153 
C 992 153 979 191 979 420 
L 979 2778 
L 243 2708 
L 243 2542 
C 602 2542 653 2503 653 2198 
L 653 427 
C 653 184 627 153 218 153 
L 218 -13 
C 371 0 646 0 806 0 
C 960 0 1222 0 1370 -13 
z
M 1056 3835 
C 1056 3988 934 4096 800 4096 
C 646 4096 538 3975 538 3835 
C 538 3682 659 3574 794 3574 
C 947 3574 1056 3695 1056 3835 
z
" transform="scale(0.015625)"/>
       <path id="LMRoman17-Regular-6d" d="M 4762 -13 
L 4762 153 
C 4352 153 4326 178 4326 428 
L 4326 1933 
C 4326 2252 4269 2790 3507 2790 
C 3072 2790 2771 2496 2656 2151 
L 2650 2151 
C 2573 2676 2195 2790 1837 2790 
C 1331 2790 1069 2400 973 2144 
L 966 2144 
L 966 2790 
L 211 2720 
L 211 2554 
C 589 2554 646 2515 646 2208 
L 646 428 
C 646 184 621 153 211 153 
L 211 -13 
C 365 0 646 0 813 0 
C 979 0 1267 0 1421 -13 
L 1421 153 
C 1011 153 986 178 986 428 
L 986 1658 
C 986 2247 1344 2688 1792 2688 
C 2266 2688 2317 2266 2317 1958 
L 2317 428 
C 2317 184 2291 153 1882 153 
L 1882 -13 
C 2035 0 2317 0 2483 0 
C 2650 0 2938 0 3091 -13 
L 3091 153 
C 2682 153 2656 178 2656 428 
L 2656 1658 
C 2656 2247 3014 2688 3462 2688 
C 3936 2688 3987 2266 3987 1958 
L 3987 428 
C 3987 184 3962 153 3552 153 
L 3552 -13 
C 3706 0 3987 0 4154 0 
C 4320 0 4608 0 4762 -13 
z
" transform="scale(0.015625)"/>
       <path id="LMRoman17-Regular-65" d="M 2464 1576 
C 2464 2238 2118 2816 1389 2816 
C 710 2816 173 2169 173 1383 
C 173 551 781 -64 1459 -64 
C 2176 -64 2458 606 2458 739 
C 2458 784 2406 784 2406 784 
C 2362 784 2355 771 2330 695 
C 2189 265 1837 51 1504 51 
C 1229 51 954 203 781 480 
C 582 803 582 1176 582 1472 
L 2438 1472 
C 2464 1498 2464 1511 2464 1576 
z
M 2118 1568 
L 589 1568 
C 634 2505 1126 2714 1382 2714 
C 1818 2714 2112 2297 2118 1568 
z
" transform="scale(0.015625)"/>
       <path id="LMRoman17-Regular-6e" d="M 3091 -13 
L 3091 153 
C 2682 153 2656 178 2656 428 
L 2656 1933 
C 2656 2259 2592 2790 1837 2790 
C 1331 2790 1069 2400 973 2144 
L 966 2144 
L 966 2790 
L 211 2720 
L 211 2554 
C 589 2554 646 2515 646 2208 
L 646 428 
C 646 184 621 153 211 153 
L 211 -13 
C 365 0 646 0 813 0 
C 979 0 1267 0 1421 -13 
L 1421 153 
C 1011 153 986 178 986 428 
L 986 1658 
C 986 2247 1344 2688 1792 2688 
C 2266 2688 2317 2266 2317 1958 
L 2317 428 
C 2317 184 2291 153 1882 153 
L 1882 -13 
C 2035 0 2317 0 2483 0 
C 2650 0 2938 0 3091 -13 
z
" transform="scale(0.015625)"/>
       <path id="LMRoman17-Regular-73" d="M 2131 784 
C 2131 1112 1958 1285 1875 1362 
C 1683 1561 1459 1606 1190 1657 
C 838 1735 390 1825 390 2217 
C 390 2383 480 2737 1126 2737 
C 1811 2737 1850 2094 1862 1888 
C 1869 1856 1901 1849 1920 1849 
C 1978 1849 1978 1869 1978 1978 
L 1978 2697 
C 1978 2813 1971 2819 1933 2819 
C 1907 2819 1901 2813 1824 2717 
C 1805 2691 1747 2626 1728 2601 
C 1523 2819 1235 2819 1126 2819 
C 416 2819 160 2447 160 2076 
C 160 1498 813 1365 998 1325 
C 1402 1243 1542 1217 1677 1101 
C 1760 1025 1901 884 1901 654 
C 1901 384 1747 38 1158 38 
C 602 38 403 460 288 1021 
C 269 1110 269 1117 218 1117 
C 166 1117 160 1110 160 983 
L 160 63 
C 160 -51 166 -58 205 -58 
C 237 -58 243 -51 275 0 
L 448 276 
C 576 103 800 -64 1158 -64 
C 1792 -64 2131 283 2131 784 
z
" transform="scale(0.015625)"/>
       <path id="LMRoman17-Regular-6f" d="M 2758 1356 
C 2758 2176 2163 2816 1466 2816 
C 768 2816 173 2176 173 1356 
C 173 551 768 -64 1466 -64 
C 2163 -64 2758 551 2758 1356 
z
M 2349 1408 
C 2349 1158 2336 775 2163 467 
C 1984 173 1709 51 1466 51 
C 1165 51 909 230 762 480 
C 602 767 582 1126 582 1408 
C 582 1677 595 2010 762 2298 
C 890 2509 1139 2714 1466 2714 
C 1754 2714 1997 2554 2150 2330 
C 2349 2029 2349 1607 2349 1408 
z
" transform="scale(0.015625)"/>
      </defs>
      <use xlink:href="#LMRoman17-Regular-55" transform="scale(0.996264)"/>
      <use xlink:href="#LMRoman17-Regular-4d" transform="translate(69.069678 0) scale(0.996264)"/>
      <use xlink:href="#LMRoman17-Regular-41" transform="translate(153.75215 0) scale(0.996264)"/>
      <use xlink:href="#LMRoman17-Regular-50" transform="translate(222.821828 0) scale(0.996264)"/>
      <use xlink:href="#LMRoman17-Regular-44" transform="translate(315.481526 0) scale(0.996264)"/>
      <use xlink:href="#LMRoman17-Regular-69" transform="translate(385.877271 0) scale(0.996264)"/>
      <use xlink:href="#LMRoman17-Regular-6d" transform="translate(410.749287 0) scale(0.996264)"/>
      <use xlink:href="#LMRoman17-Regular-65" transform="translate(487.671446 0) scale(0.996264)"/>
      <use xlink:href="#LMRoman17-Regular-6e" transform="translate(528.156255 0) scale(0.996264)"/>
      <use xlink:href="#LMRoman17-Regular-73" transform="translate(579.053342 0) scale(0.996264)"/>
      <use xlink:href="#LMRoman17-Regular-69" transform="translate(614.85658 0) scale(0.996264)"/>
      <use xlink:href="#LMRoman17-Regular-6f" transform="translate(639.728596 0) scale(0.996264)"/>
      <use xlink:href="#LMRoman17-Regular-6e" transform="translate(685.419545 0) scale(0.996264)"/>
      <use xlink:href="#LMRoman17-Regular-31" transform="translate(766.392781 0) scale(0.996264)"/>
     </g>
    </g>
   </g>
   <g id="matplotlib.axis_2">
    <g id="ytick_1">
     <g id="line2d_9">
      <defs>
       <path id="m2dd25e8c02" d="M 0 0 
L -3.5 0 
" style="stroke: #000000; stroke-width: 0.8"/>
      </defs>
      <g>
       <use xlink:href="#m2dd25e8c02" x="99" y="337.425209" style="stroke: #000000; stroke-width: 0.8"/>
      </g>
     </g>
     <g id="text_10">
      <!-- $\mathdefault{6}$ -->
      <g transform="translate(86.146964 341.601541) scale(0.12 -0.12)">
       <defs>
        <path id="LMRoman17-Regular-36" d="M 2688 1283 
C 2688 2081 2170 2662 1517 2662 
C 1126 2662 838 2407 678 1960 
L 678 2176 
C 678 3690 1395 4032 1811 4032 
C 1946 4032 2272 4009 2400 3776 
C 2298 3776 2106 3776 2106 3553 
C 2106 3381 2246 3323 2336 3323 
C 2394 3323 2566 3348 2566 3560 
C 2566 3954 2246 4179 1805 4179 
C 1043 4179 243 3390 243 1984 
C 243 253 966 -128 1478 -128 
C 2099 -128 2688 427 2688 1283 
z
M 2253 1289 
C 2253 944 2253 690 2118 434 
C 1978 171 1773 25 1478 25 
C 691 25 691 1200 691 1436 
C 691 1896 909 2560 1504 2560 
C 1613 2560 1926 2560 2138 2120 
C 2253 1870 2253 1609 2253 1289 
z
" transform="scale(0.015625)"/>
       </defs>
       <use xlink:href="#LMRoman17-Regular-36" transform="scale(0.996264)"/>
      </g>
     </g>
    </g>
    <g id="ytick_2">
     <g id="line2d_10">
      <g>
       <use xlink:href="#m2dd25e8c02" x="99" y="289.209701" style="stroke: #000000; stroke-width: 0.8"/>
      </g>
     </g>
     <g id="text_11">
      <!-- $\mathdefault{7}$ -->
      <g transform="translate(86.146964 293.386033) scale(0.12 -0.12)">
       <use xlink:href="#LMRoman17-Regular-37" transform="scale(0.996264)"/>
      </g>
     </g>
    </g>
    <g id="ytick_3">
     <g id="line2d_11">
      <g>
       <use xlink:href="#m2dd25e8c02" x="99" y="240.994193" style="stroke: #000000; stroke-width: 0.8"/>
      </g>
     </g>
     <g id="text_12">
      <!-- $\mathdefault{8}$ -->
      <g transform="translate(86.146964 245.170526) scale(0.12 -0.12)">
       <defs>
        <path id="LMRoman17-Regular-38" d="M 2720 1011 
C 2720 1590 2330 1858 2074 2029 
C 1984 2092 1933 2124 1741 2264 
C 2144 2468 2554 2773 2554 3263 
C 2554 3842 1990 4179 1472 4179 
C 890 4179 378 3759 378 3180 
C 378 3021 416 2747 666 2505 
C 730 2442 998 2251 1171 2130 
C 883 1983 211 1634 211 934 
C 211 279 838 -128 1459 -128 
C 2144 -128 2720 362 2720 1011 
z
M 2336 3262 
C 2336 2669 1670 2331 1638 2331 
C 1638 2331 1626 2331 1574 2370 
L 902 2822 
C 851 2854 595 3051 595 3351 
C 595 3739 998 4032 1459 4032 
C 1965 4032 2336 3676 2336 3262 
z
M 2483 851 
C 2483 381 2010 25 1472 25 
C 890 25 448 438 448 940 
C 448 1443 838 1862 1280 2060 
L 2080 1519 
C 2176 1449 2483 1240 2483 851 
z
" transform="scale(0.015625)"/>
       </defs>
       <use xlink:href="#LMRoman17-Regular-38" transform="scale(0.996264)"/>
      </g>
     </g>
    </g>
    <g id="ytick_4">
     <g id="line2d_12">
      <g>
       <use xlink:href="#m2dd25e8c02" x="99" y="192.778686" style="stroke: #000000; stroke-width: 0.8"/>
      </g>
     </g>
     <g id="text_13">
      <!-- $\mathdefault{9}$ -->
      <g transform="translate(86.146964 196.955018) scale(0.12 -0.12)">
       <defs>
        <path id="LMRoman17-Regular-39" d="M 2688 2073 
C 2688 3817 1971 4179 1485 4179 
C 851 4179 243 3628 243 2778 
C 243 1991 762 1408 1414 1408 
C 1952 1408 2189 1903 2253 2112 
L 2253 1864 
C 2253 464 1670 31 1190 31 
C 1043 31 685 31 538 294 
C 704 268 826 357 826 518 
C 826 692 685 749 595 749 
C 538 749 365 723 365 506 
C 365 71 742 -128 1203 -128 
C 1939 -128 2688 674 2688 2073 
z
M 2240 2632 
C 2240 2182 2035 1510 1427 1510 
C 1254 1510 1011 1542 813 1922 
C 678 2169 678 2461 678 2771 
C 678 3146 678 3405 858 3684 
C 947 3817 1114 4032 1485 4032 
C 2240 4032 2240 2885 2240 2632 
z
" transform="scale(0.015625)"/>
       </defs>
       <use xlink:href="#LMRoman17-Regular-39" transform="scale(0.996264)"/>
      </g>
     </g>
    </g>
    <g id="ytick_5">
     <g id="line2d_13">
      <g>
       <use xlink:href="#m2dd25e8c02" x="99" y="144.563178" style="stroke: #000000; stroke-width: 0.8"/>
      </g>
     </g>
     <g id="text_14">
      <!-- $\mathdefault{10}$ -->
      <g transform="translate(80.293928 148.739511) scale(0.12 -0.12)">
       <use xlink:href="#LMRoman17-Regular-31" transform="scale(0.996264)"/>
       <use xlink:href="#LMRoman17-Regular-30" transform="translate(45.690948 0) scale(0.996264)"/>
      </g>
     </g>
    </g>
    <g id="ytick_6">
     <g id="line2d_14">
      <g>
       <use xlink:href="#m2dd25e8c02" x="99" y="96.34767" style="stroke: #000000; stroke-width: 0.8"/>
      </g>
     </g>
     <g id="text_15">
      <!-- $\mathdefault{11}$ -->
      <g transform="translate(80.293928 100.524003) scale(0.12 -0.12)">
       <use xlink:href="#LMRoman17-Regular-31" transform="scale(0.996264)"/>
       <use xlink:href="#LMRoman17-Regular-31" transform="translate(45.690948 0) scale(0.996264)"/>
      </g>
     </g>
    </g>
    <g id="text_16">
     <!-- UMAP Dimension 2 -->
     <g transform="translate(73.969333 270.049072) rotate(-90) scale(0.12 -0.12)">
      <use xlink:href="#LMRoman17-Regular-55" transform="scale(0.996264)"/>
      <use xlink:href="#LMRoman17-Regular-4d" transform="translate(69.069678 0) scale(0.996264)"/>
      <use xlink:href="#LMRoman17-Regular-41" transform="translate(153.75215 0) scale(0.996264)"/>
      <use xlink:href="#LMRoman17-Regular-50" transform="translate(222.821828 0) scale(0.996264)"/>
      <use xlink:href="#LMRoman17-Regular-44" transform="translate(315.481526 0) scale(0.996264)"/>
      <use xlink:href="#LMRoman17-Regular-69" transform="translate(385.877271 0) scale(0.996264)"/>
      <use xlink:href="#LMRoman17-Regular-6d" transform="translate(410.749287 0) scale(0.996264)"/>
      <use xlink:href="#LMRoman17-Regular-65" transform="translate(487.671446 0) scale(0.996264)"/>
      <use xlink:href="#LMRoman17-Regular-6e" transform="translate(528.156255 0) scale(0.996264)"/>
      <use xlink:href="#LMRoman17-Regular-73" transform="translate(579.053342 0) scale(0.996264)"/>
      <use xlink:href="#LMRoman17-Regular-69" transform="translate(614.85658 0) scale(0.996264)"/>
      <use xlink:href="#LMRoman17-Regular-6f" transform="translate(639.728596 0) scale(0.996264)"/>
      <use xlink:href="#LMRoman17-Regular-6e" transform="translate(685.419545 0) scale(0.996264)"/>
      <use xlink:href="#LMRoman17-Regular-32" transform="translate(766.392781 0) scale(0.996264)"/>
     </g>
    </g>
   </g>
   <g id="line2d_15"/>
   <g id="line2d_16"/>
   <g id="line2d_17"/>
   <g id="line2d_18"/>
   <g id="line2d_19"/>
   <g id="line2d_20"/>
   <g id="line2d_21"/>
   <g id="line2d_22"/>
   <g id="line2d_23"/>
   <g id="patch_3">
    <path d="M 99 384.48 
L 99 51.84 
" style="fill: none; stroke: #000000; stroke-width: 0.8; stroke-linejoin: miter; stroke-linecap: square"/>
   </g>
   <g id="patch_4">
    <path d="M 712.8 384.48 
L 712.8 51.84 
" style="fill: none; stroke: #000000; stroke-width: 0.8; stroke-linejoin: miter; stroke-linecap: square"/>
   </g>
   <g id="patch_5">
    <path d="M 99 384.48 
L 712.8 384.48 
" style="fill: none; stroke: #000000; stroke-width: 0.8; stroke-linejoin: miter; stroke-linecap: square"/>
   </g>
   <g id="patch_6">
    <path d="M 99 51.84 
L 712.8 51.84 
" style="fill: none; stroke: #000000; stroke-width: 0.8; stroke-linejoin: miter; stroke-linecap: square"/>
   </g>
   <g id="text_17">
    <!-- Clusters in UMAP-Transformed Latent Space (Labeled by Telescope) -->
    <g transform="translate(227.506111 45.84) scale(0.12 -0.12)">
     <defs>
      <path id="LMRoman17-Regular-43" d="M 3974 1461 
C 3974 1524 3974 1550 3917 1550 
C 3866 1550 3866 1531 3859 1474 
C 3808 585 3168 38 2477 38 
C 1824 38 781 495 781 2147 
C 781 3805 1843 4250 2464 4250 
C 3187 4250 3712 3628 3834 2745 
C 3846 2668 3846 2655 3904 2655 
C 3974 2655 3974 2668 3974 2783 
L 3974 4289 
C 3974 4403 3968 4410 3930 4410 
C 3904 4410 3898 4403 3853 4327 
L 3571 3792 
C 3258 4187 2874 4416 2381 4416 
C 1286 4416 294 3456 294 2148 
C 294 826 1286 -128 2387 -128 
C 3366 -128 3974 730 3974 1461 
z
" transform="scale(0.015625)"/>
      <path id="LMRoman17-Regular-6c" d="M 1414 -13 
L 1414 153 
C 1005 153 979 178 979 426 
L 979 4396 
L 218 4326 
L 218 4160 
C 595 4160 653 4122 653 3817 
L 653 426 
C 653 184 627 153 218 153 
L 218 -13 
C 371 0 653 0 813 0 
C 979 0 1261 0 1414 -13 
z
" transform="scale(0.015625)"/>
      <path id="LMRoman17-Regular-75" d="M 3091 -63 
L 3091 128 
C 2714 128 2656 166 2656 473 
L 2656 2763 
L 1882 2693 
L 1882 2528 
C 2259 2528 2317 2489 2317 2186 
L 2317 1032 
C 2317 500 2029 38 1555 38 
C 1030 38 986 348 986 678 
L 986 2763 
L 211 2693 
L 211 2528 
C 467 2528 640 2528 646 2274 
L 646 1058 
C 646 633 646 361 813 183 
C 896 101 1056 -64 1517 -64 
C 2061 -64 2272 377 2323 506 
L 2330 506 
L 2330 -63 
L 3091 -63 
z
" transform="scale(0.015625)"/>
      <path id="LMRoman17-Regular-74" d="M 1965 777 
L 1965 1140 
L 1850 1140 
L 1850 783 
C 1850 344 1677 51 1408 51 
C 1222 51 966 178 966 758 
L 966 2560 
L 1862 2560 
L 1862 2725 
L 966 2725 
L 966 3904 
L 851 3904 
C 838 3245 614 2668 70 2668 
L 70 2560 
L 627 2560 
L 627 771 
C 627 650 627 -64 1370 -64 
C 1747 -64 1965 306 1965 777 
z
" transform="scale(0.015625)"/>
      <path id="LMRoman17-Regular-72" d="M 2131 2458 
C 2131 2663 1926 2790 1709 2790 
C 1222 2790 1011 2317 947 2093 
L 941 2093 
L 941 2790 
L 198 2720 
L 198 2554 
C 576 2554 634 2515 634 2208 
L 634 428 
C 634 184 608 153 198 153 
L 198 -13 
C 352 0 646 0 813 0 
C 998 0 1325 0 1498 -13 
L 1498 153 
C 1037 153 960 153 960 440 
L 960 1497 
C 960 2112 1222 2688 1702 2688 
C 1747 2688 1792 2682 1837 2662 
C 1837 2662 1696 2617 1696 2452 
C 1696 2298 1818 2234 1914 2234 
C 1990 2234 2131 2279 2131 2458 
z
" transform="scale(0.015625)"/>
      <path id="LMRoman17-Regular-2d" d="M 1632 1216 
L 1632 1496 
L 26 1496 
L 26 1216 
L 1632 1216 
z
" transform="scale(0.015625)"/>
      <path id="LMRoman17-Regular-54" d="M 4090 2918 
L 3981 4326 
L 288 4326 
L 179 2918 
L 294 2918 
C 378 3976 467 4160 1453 4160 
C 1568 4160 1754 4160 1805 4154 
C 1926 4135 1926 4058 1926 3912 
L 1926 459 
C 1926 230 1907 160 1376 160 
L 1197 160 
L 1197 0 
L 2138 0 
L 3078 0 
L 3078 160 
L 2899 160 
C 2368 160 2349 230 2349 459 
L 2349 3912 
C 2349 4052 2349 4129 2464 4154 
C 2515 4160 2701 4160 2816 4160 
C 3795 4160 3891 3976 3974 2918 
L 4090 2918 
z
" transform="scale(0.015625)"/>
      <path id="LMRoman17-Regular-61" d="M 2874 567 
L 2874 920 
L 2758 920 
L 2758 562 
C 2758 178 2586 128 2502 128 
C 2240 128 2240 458 2240 738 
L 2240 1653 
C 2240 2072 2240 2294 1971 2543 
C 1734 2752 1459 2816 1242 2816 
C 736 2816 371 2407 371 1971 
C 371 1728 563 1728 602 1728 
C 685 1728 832 1778 832 1954 
C 832 2112 710 2181 602 2181 
C 576 2181 544 2174 525 2168 
C 659 2592 1005 2714 1229 2714 
C 1549 2714 1901 2429 1901 1885 
L 1901 1600 
C 1523 1600 1069 1549 710 1357 
C 307 1133 192 813 192 570 
C 192 77 768 -64 1107 -64 
C 1459 -64 1786 139 1926 511 
C 1939 233 2118 -18 2400 -18 
C 2534 -18 2874 70 2874 567 
z
M 1901 870 
C 1901 317 1504 38 1152 38 
C 832 38 582 275 582 570 
C 582 761 666 1100 1037 1305 
C 1344 1478 1696 1504 1901 1504 
L 1901 870 
z
" transform="scale(0.015625)"/>
      <path id="LMRoman17-Regular-66" d="M 2003 4067 
C 2003 4308 1773 4454 1517 4454 
C 1152 4454 653 4156 653 3481 
L 653 2725 
L 141 2725 
L 141 2560 
L 653 2560 
L 653 427 
C 653 184 627 153 218 153 
L 218 -13 
C 371 0 666 0 832 0 
C 1018 0 1344 0 1517 -13 
L 1517 153 
C 1056 153 979 153 979 439 
L 979 2560 
L 1709 2560 
L 1709 2725 
L 966 2725 
L 966 3494 
C 966 4022 1235 4352 1510 4352 
C 1594 4352 1690 4327 1754 4282 
C 1702 4269 1568 4225 1568 4067 
C 1568 3901 1696 3850 1786 3850 
C 1875 3850 2003 3901 2003 4067 
z
" transform="scale(0.015625)"/>
      <path id="LMRoman17-Regular-64" d="M 3066 -63 
L 3066 128 
C 2688 128 2630 166 2630 473 
L 2630 4396 
L 1869 4326 
L 1869 4160 
C 2246 4160 2304 4122 2304 3820 
L 2304 2345 
C 2278 2377 2016 2790 1498 2790 
C 845 2790 211 2208 211 1364 
C 211 525 806 -64 1434 -64 
C 1978 -64 2259 337 2291 380 
L 2291 -63 
L 3066 -63 
z
M 2291 755 
C 2291 563 2176 390 2029 262 
C 1811 70 1594 38 1472 38 
C 1286 38 621 134 621 1356 
C 621 2612 1363 2688 1530 2688 
C 1824 2688 2061 2522 2208 2291 
C 2291 2157 2291 2138 2291 2023 
L 2291 755 
z
" transform="scale(0.015625)"/>
      <path id="LMRoman17-Regular-4c" d="M 3469 1615 
L 3354 1615 
C 3302 983 3219 166 2125 166 
L 1530 166 
C 1274 166 1261 197 1261 414 
L 1261 3898 
C 1261 4129 1274 4192 1760 4192 
L 1901 4192 
L 1901 4352 
C 1638 4352 1331 4352 1069 4352 
C 870 4352 512 4352 326 4352 
L 326 4192 
C 768 4192 838 4192 838 3905 
L 838 452 
C 838 166 768 166 326 166 
L 326 0 
L 3315 0 
L 3469 1615 
z
" transform="scale(0.015625)"/>
      <path id="LMRoman17-Regular-53" d="M 2970 1124 
C 2970 1454 2848 1708 2778 1823 
C 2509 2230 2221 2306 1914 2382 
C 1869 2402 1856 2402 1498 2490 
C 1152 2579 1005 2624 845 2796 
C 666 2992 602 3196 602 3399 
C 602 3812 934 4263 1478 4263 
C 2157 4263 2579 3786 2675 2993 
C 2694 2878 2701 2872 2746 2872 
C 2803 2872 2803 2891 2803 2999 
L 2803 4290 
C 2803 4404 2797 4411 2758 4411 
C 2720 4411 2707 4385 2682 4328 
L 2490 3907 
C 2246 4257 1875 4416 1472 4416 
C 819 4416 294 3901 294 3253 
C 294 3056 339 2776 557 2510 
C 794 2218 1018 2167 1530 2033 
C 1722 1982 2042 1899 2106 1874 
C 2470 1722 2662 1341 2662 985 
C 2662 527 2336 38 1779 38 
C 1094 38 454 419 410 1311 
C 403 1413 397 1419 352 1419 
C 301 1419 294 1413 294 1285 
L 294 -1 
C 294 -115 301 -122 339 -122 
C 384 -122 397 -90 486 108 
C 493 127 493 140 614 381 
C 934 -39 1472 -128 1779 -128 
C 2477 -128 2970 451 2970 1124 
z
" transform="scale(0.015625)"/>
      <path id="LMRoman17-Regular-70" d="M 3053 1388 
C 3053 2191 2496 2802 1837 2802 
C 1453 2802 1139 2592 960 2338 
L 960 2802 
L 198 2732 
L 198 2567 
C 576 2567 634 2528 634 2223 
L 634 -789 
C 634 -1031 608 -1063 198 -1063 
L 198 -1228 
C 352 -1216 634 -1216 800 -1216 
C 966 -1216 1254 -1216 1408 -1228 
L 1408 -1063 
C 998 -1063 973 -1037 973 -789 
L 973 402 
C 1158 134 1427 -38 1766 -38 
C 2406 -38 3053 523 3053 1388 
z
M 2643 1382 
C 2643 656 2234 64 1728 64 
C 1498 64 1248 172 1056 472 
C 973 612 973 650 973 752 
L 973 2012 
C 973 2102 973 2235 1222 2471 
C 1254 2497 1472 2688 1792 2688 
C 2259 2688 2643 2108 2643 1382 
z
" transform="scale(0.015625)"/>
      <path id="LMRoman17-Regular-63" d="M 2458 748 
C 2458 774 2451 793 2406 793 
C 2362 793 2355 787 2330 703 
C 2163 180 1798 51 1523 51 
C 1114 51 621 427 621 1369 
C 621 2338 1094 2688 1472 2688 
C 1722 2688 2093 2573 2234 2240 
C 2112 2240 1933 2240 1933 2017 
C 1933 1838 2080 1787 2163 1787 
C 2208 1787 2394 1807 2394 2024 
C 2394 2467 1958 2803 1466 2803 
C 787 2803 211 2178 211 1363 
C 211 516 813 -64 1466 -64 
C 2259 -64 2458 677 2458 748 
z
" transform="scale(0.015625)"/>
      <path id="LMRoman17-Regular-28" d="M 1958 -1561 
C 1958 -1561 1958 -1542 1939 -1523 
C 1645 -1224 858 -407 858 1581 
C 858 3569 1632 4379 1946 4697 
C 1946 4697 1958 4717 1958 4736 
C 1958 4755 1939 4768 1914 4768 
C 1843 4768 1299 4296 986 3594 
C 666 2887 576 2199 576 1588 
C 576 1128 621 351 1005 -471 
C 1312 -1135 1837 -1600 1914 -1600 
C 1946 -1600 1958 -1587 1958 -1561 
z
" transform="scale(0.015625)"/>
      <path id="LMRoman17-Regular-62" d="M 3053 1370 
C 3053 2188 2477 2790 1830 2790 
C 1434 2790 1152 2579 960 2330 
L 960 4396 
L 198 4326 
L 198 4160 
C 576 4160 634 4122 634 3817 
L 634 -13 
L 749 -13 
L 934 441 
C 1120 141 1395 -64 1766 -64 
C 2406 -64 3053 500 3053 1370 
z
M 2643 1376 
C 2643 108 1888 38 1734 38 
C 1536 38 1248 114 1043 486 
C 973 608 973 621 973 735 
L 973 2004 
C 973 2118 973 2138 1062 2272 
C 1312 2657 1670 2688 1792 2688 
C 1984 2688 2643 2585 2643 1376 
z
" transform="scale(0.015625)"/>
      <path id="LMRoman17-Regular-79" d="M 3034 2593 
L 3034 2752 
L 2630 2752 
C 2496 2752 2285 2752 2157 2758 
L 2157 2593 
C 2400 2574 2406 2395 2406 2344 
C 2406 2281 2394 2249 2362 2171 
L 1664 449 
L 902 2312 
C 870 2389 870 2440 870 2440 
C 870 2580 1018 2593 1171 2593 
L 1171 2758 
C 1018 2752 742 2752 582 2752 
C 410 2752 205 2752 64 2758 
L 64 2593 
C 410 2593 448 2561 531 2357 
L 1485 15 
C 1197 -738 1030 -1178 627 -1178 
C 557 -1178 397 -1159 282 -1044 
C 429 -1031 493 -942 493 -833 
C 493 -725 416 -629 288 -629 
C 147 -629 77 -725 77 -840 
C 77 -1095 339 -1280 627 -1280 
C 998 -1280 1229 -922 1357 -603 
L 2496 2204 
C 2656 2593 2944 2593 3034 2593 
z
" transform="scale(0.015625)"/>
      <path id="LMRoman17-Regular-29" d="M 1683 1581 
C 1683 2040 1638 2817 1254 3639 
C 947 4303 422 4768 346 4768 
C 326 4768 301 4761 301 4729 
C 301 4729 307 4710 314 4697 
C 621 4378 1402 3568 1402 1584 
C 1402 -407 627 -1217 314 -1537 
C 307 -1549 301 -1568 301 -1568 
C 301 -1600 326 -1600 346 -1600 
C 416 -1600 960 -1128 1274 -426 
C 1594 281 1683 969 1683 1581 
z
" transform="scale(0.015625)"/>
     </defs>
     <use xlink:href="#LMRoman17-Regular-43" transform="scale(0.996264)"/>
     <use xlink:href="#LMRoman17-Regular-6c" transform="translate(66.509789 0) scale(0.996264)"/>
     <use xlink:href="#LMRoman17-Regular-75" transform="translate(91.381806 0) scale(0.996264)"/>
     <use xlink:href="#LMRoman17-Regular-73" transform="translate(142.278893 0) scale(0.996264)"/>
     <use xlink:href="#LMRoman17-Regular-74" transform="translate(178.082131 0) scale(0.996264)"/>
     <use xlink:href="#LMRoman17-Regular-65" transform="translate(213.363659 0) scale(0.996264)"/>
     <use xlink:href="#LMRoman17-Regular-72" transform="translate(253.848468 0) scale(0.996264)"/>
     <use xlink:href="#LMRoman17-Regular-73" transform="translate(289.129996 0) scale(0.996264)"/>
     <use xlink:href="#LMRoman17-Regular-69" transform="translate(355.009383 0) scale(0.996264)"/>
     <use xlink:href="#LMRoman17-Regular-6e" transform="translate(379.881399 0) scale(0.996264)"/>
     <use xlink:href="#LMRoman17-Regular-55" transform="translate(460.854635 0) scale(0.996264)"/>
     <use xlink:href="#LMRoman17-Regular-4d" transform="translate(529.924313 0) scale(0.996264)"/>
     <use xlink:href="#LMRoman17-Regular-41" transform="translate(614.606785 0) scale(0.996264)"/>
     <use xlink:href="#LMRoman17-Regular-50" transform="translate(683.676463 0) scale(0.996264)"/>
     <use xlink:href="#LMRoman17-Regular-2d" transform="translate(746.260012 0) scale(0.996264)"/>
     <use xlink:href="#LMRoman17-Regular-54" transform="translate(776.336252 0) scale(0.996264)"/>
     <use xlink:href="#LMRoman17-Regular-72" transform="translate(835.038968 0) scale(0.996264)"/>
     <use xlink:href="#LMRoman17-Regular-61" transform="translate(870.320496 0) scale(0.996264)"/>
     <use xlink:href="#LMRoman17-Regular-6e" transform="translate(916.011445 0) scale(0.996264)"/>
     <use xlink:href="#LMRoman17-Regular-73" transform="translate(966.908532 0) scale(0.996264)"/>
     <use xlink:href="#LMRoman17-Regular-66" transform="translate(1002.71177 0) scale(0.996264)"/>
     <use xlink:href="#LMRoman17-Regular-6f" transform="translate(1030.183945 0) scale(0.996264)"/>
     <use xlink:href="#LMRoman17-Regular-72" transform="translate(1075.874893 0) scale(0.996264)"/>
     <use xlink:href="#LMRoman17-Regular-6d" transform="translate(1111.156421 0) scale(0.996264)"/>
     <use xlink:href="#LMRoman17-Regular-65" transform="translate(1188.07858 0) scale(0.996264)"/>
     <use xlink:href="#LMRoman17-Regular-64" transform="translate(1228.563389 0) scale(0.996264)"/>
     <use xlink:href="#LMRoman17-Regular-4c" transform="translate(1309.536625 0) scale(0.996264)"/>
     <use xlink:href="#LMRoman17-Regular-61" transform="translate(1366.919827 0) scale(0.996264)"/>
     <use xlink:href="#LMRoman17-Regular-74" transform="translate(1412.610775 0) scale(0.996264)"/>
     <use xlink:href="#LMRoman17-Regular-65" transform="translate(1447.892303 0) scale(0.996264)"/>
     <use xlink:href="#LMRoman17-Regular-6e" transform="translate(1488.377112 0) scale(0.996264)"/>
     <use xlink:href="#LMRoman17-Regular-74" transform="translate(1536.671746 0) scale(0.996264)"/>
     <use xlink:href="#LMRoman17-Regular-53" transform="translate(1602.029423 0) scale(0.996264)"/>
     <use xlink:href="#LMRoman17-Regular-70" transform="translate(1652.92651 0) scale(0.996264)"/>
     <use xlink:href="#LMRoman17-Regular-61" transform="translate(1703.823598 0) scale(0.996264)"/>
     <use xlink:href="#LMRoman17-Regular-63" transform="translate(1749.514546 0) scale(0.996264)"/>
     <use xlink:href="#LMRoman17-Regular-65" transform="translate(1789.999355 0) scale(0.996264)"/>
     <use xlink:href="#LMRoman17-Regular-28" transform="translate(1860.560313 0) scale(0.996264)"/>
     <use xlink:href="#LMRoman17-Regular-4c" transform="translate(1895.841841 0) scale(0.996264)"/>
     <use xlink:href="#LMRoman17-Regular-61" transform="translate(1953.225043 0) scale(0.996264)"/>
     <use xlink:href="#LMRoman17-Regular-62" transform="translate(1998.915991 0) scale(0.996264)"/>
     <use xlink:href="#LMRoman17-Regular-65" transform="translate(2052.415518 0) scale(0.996264)"/>
     <use xlink:href="#LMRoman17-Regular-6c" transform="translate(2092.900327 0) scale(0.996264)"/>
     <use xlink:href="#LMRoman17-Regular-65" transform="translate(2117.772343 0) scale(0.996264)"/>
     <use xlink:href="#LMRoman17-Regular-64" transform="translate(2158.257152 0) scale(0.996264)"/>
     <use xlink:href="#LMRoman17-Regular-62" transform="translate(2239.230388 0) scale(0.996264)"/>
     <use xlink:href="#LMRoman17-Regular-79" transform="translate(2287.525022 0) scale(0.996264)"/>
     <use xlink:href="#LMRoman17-Regular-54" transform="translate(2365.892384 0) scale(0.996264)"/>
     <use xlink:href="#LMRoman17-Regular-65" transform="translate(2424.595101 0) scale(0.996264)"/>
     <use xlink:href="#LMRoman17-Regular-6c" transform="translate(2465.07991 0) scale(0.996264)"/>
     <use xlink:href="#LMRoman17-Regular-65" transform="translate(2489.951926 0) scale(0.996264)"/>
     <use xlink:href="#LMRoman17-Regular-73" transform="translate(2530.436735 0) scale(0.996264)"/>
     <use xlink:href="#LMRoman17-Regular-63" transform="translate(2566.239973 0) scale(0.996264)"/>
     <use xlink:href="#LMRoman17-Regular-6f" transform="translate(2606.724782 0) scale(0.996264)"/>
     <use xlink:href="#LMRoman17-Regular-70" transform="translate(2652.41573 0) scale(0.996264)"/>
     <use xlink:href="#LMRoman17-Regular-65" transform="translate(2705.915257 0) scale(0.996264)"/>
     <use xlink:href="#LMRoman17-Regular-29" transform="translate(2746.400066 0) scale(0.996264)"/>
    </g>
   </g>
   <g id="legend_1">
    <g id="patch_7">
     <path d="M 104.6 173.264425 
L 168.233263 173.264425 
Q 169.833263 173.264425 169.833263 171.664425 
L 169.833263 57.44 
Q 169.833263 55.84 168.233263 55.84 
L 104.6 55.84 
Q 103 55.84 103 57.44 
L 103 171.664425 
Q 103 173.264425 104.6 173.264425 
z
" style="fill: #ffffff; opacity: 0.8; stroke: #cccccc; stroke-linejoin: miter"/>
    </g>
    <g id="text_18">
     <!-- Telescope -->
     <g transform="translate(111.996815 67.392665) scale(0.12 -0.12)">
      <use xlink:href="#LMRoman17-Regular-54" transform="scale(0.996264)"/>
      <use xlink:href="#LMRoman17-Regular-65" transform="translate(58.702716 0) scale(0.996264)"/>
      <use xlink:href="#LMRoman17-Regular-6c" transform="translate(99.187526 0) scale(0.996264)"/>
      <use xlink:href="#LMRoman17-Regular-65" transform="translate(124.059542 0) scale(0.996264)"/>
      <use xlink:href="#LMRoman17-Regular-73" transform="translate(164.544351 0) scale(0.996264)"/>
      <use xlink:href="#LMRoman17-Regular-63" transform="translate(200.347589 0) scale(0.996264)"/>
      <use xlink:href="#LMRoman17-Regular-6f" transform="translate(240.832398 0) scale(0.996264)"/>
      <use xlink:href="#LMRoman17-Regular-70" transform="translate(286.523346 0) scale(0.996264)"/>
      <use xlink:href="#LMRoman17-Regular-65" transform="translate(340.022873 0) scale(0.996264)"/>
     </g>
    </g>
    <g id="line2d_24">
     <defs>
      <path id="m98a5f39d48" d="M 0 3.872983 
C 1.027127 3.872983 2.012324 3.464901 2.738613 2.738613 
C 3.464901 2.012324 3.872983 1.027127 3.872983 0 
C 3.872983 -1.027127 3.464901 -2.012324 2.738613 -2.738613 
C 2.012324 -3.464901 1.027127 -3.872983 0 -3.872983 
C -1.027127 -3.872983 -2.012324 -3.464901 -2.738613 -2.738613 
C -3.464901 -2.012324 -3.872983 -1.027127 -3.872983 0 
C -3.872983 1.027127 -3.464901 2.012324 -2.738613 2.738613 
C -2.012324 3.464901 -1.027127 3.872983 0 3.872983 
z
" style="stroke: #ffffff; stroke-opacity: 0.8; stroke-width: 0.619677"/>
     </defs>
     <g>
      <use xlink:href="#m98a5f39d48" x="114.2" y="76.517261" style="fill: #482475; fill-opacity: 0.8; stroke: #ffffff; stroke-opacity: 0.8; stroke-width: 0.619677"/>
     </g>
    </g>
    <g id="text_19">
     <!-- CHIME -->
     <g transform="translate(128.6 79.317261) scale(0.08 -0.08)">
      <defs>
       <path id="LMRoman17-Regular-48" d="M 4102 0 
L 4102 160 
C 3661 160 3590 160 3590 447 
L 3590 3905 
C 3590 4192 3661 4192 4102 4192 
L 4102 4352 
C 3917 4352 3578 4352 3379 4352 
C 3181 4352 2842 4352 2656 4352 
L 2656 4192 
C 3098 4192 3168 4192 3168 3904 
L 3168 2341 
L 1261 2341 
L 1261 3904 
C 1261 4192 1331 4192 1773 4192 
L 1773 4352 
C 1587 4352 1248 4352 1050 4352 
C 851 4352 512 4352 326 4352 
L 326 4192 
C 768 4192 838 4192 838 3905 
L 838 447 
C 838 160 768 160 326 160 
L 326 0 
C 512 0 851 0 1050 0 
C 1248 0 1587 0 1773 0 
L 1773 160 
C 1331 160 1261 160 1261 446 
L 1261 2176 
L 3168 2176 
L 3168 446 
C 3168 160 3098 160 2656 160 
L 2656 0 
C 2842 0 3181 0 3379 0 
C 3578 0 3917 0 4102 0 
z
" transform="scale(0.015625)"/>
       <path id="LMRoman17-Regular-49" d="M 1798 0 
L 1798 160 
C 1338 160 1261 160 1261 447 
L 1261 3905 
C 1261 4192 1338 4192 1798 4192 
L 1798 4352 
C 1594 4352 1267 4352 1050 4352 
C 832 4352 506 4352 301 4352 
L 301 4192 
C 762 4192 838 4192 838 3905 
L 838 447 
C 838 160 762 160 301 160 
L 301 0 
C 506 0 832 0 1050 0 
C 1267 0 1594 0 1798 0 
z
" transform="scale(0.015625)"/>
       <path id="LMRoman17-Regular-45" d="M 3885 1615 
L 3770 1615 
C 3629 676 3546 166 2419 166 
L 1530 166 
C 1274 166 1261 197 1261 414 
L 1261 2176 
L 1862 2176 
C 2464 2176 2522 1960 2522 1430 
L 2637 1430 
L 2637 3081 
L 2522 3081 
C 2522 2557 2464 2342 1862 2342 
L 1261 2342 
L 1261 3913 
C 1261 4128 1274 4160 1530 4160 
L 2406 4160 
C 3398 4160 3514 3769 3603 2929 
L 3718 2929 
L 3565 4325 
L 326 4325 
L 326 4160 
C 768 4160 838 4160 838 3874 
L 838 451 
C 838 166 768 166 326 166 
L 326 0 
L 3654 0 
L 3885 1615 
z
" transform="scale(0.015625)"/>
      </defs>
      <use xlink:href="#LMRoman17-Regular-43" transform="scale(0.996264)"/>
      <use xlink:href="#LMRoman17-Regular-48" transform="translate(66.509789 0) scale(0.996264)"/>
      <use xlink:href="#LMRoman17-Regular-49" transform="translate(135.579468 0) scale(0.996264)"/>
      <use xlink:href="#LMRoman17-Regular-4d" transform="translate(168.217497 0) scale(0.996264)"/>
      <use xlink:href="#LMRoman17-Regular-45" transform="translate(252.899968 0) scale(0.996264)"/>
     </g>
    </g>
    <g id="line2d_25">
     <defs>
      <path id="mf12b177d6b" d="M 0 3.872983 
C 1.027127 3.872983 2.012324 3.464901 2.738613 2.738613 
C 3.464901 2.012324 3.872983 1.027127 3.872983 0 
C 3.872983 -1.027127 3.464901 -2.012324 2.738613 -2.738613 
C 2.012324 -3.464901 1.027127 -3.872983 0 -3.872983 
C -1.027127 -3.872983 -2.012324 -3.464901 -2.738613 -2.738613 
C -3.464901 -2.012324 -3.872983 -1.027127 -3.872983 0 
C -3.872983 1.027127 -3.464901 2.012324 -2.738613 2.738613 
C -2.012324 3.464901 -1.027127 3.872983 0 3.872983 
z
" style="stroke: #ffffff; stroke-opacity: 0.8; stroke-width: 0.619677"/>
     </defs>
     <g>
      <use xlink:href="#mf12b177d6b" x="114.2" y="87.666946" style="fill: #414487; fill-opacity: 0.8; stroke: #ffffff; stroke-opacity: 0.8; stroke-width: 0.619677"/>
     </g>
    </g>
    <g id="text_20">
     <!-- Parkes -->
     <g transform="translate(128.6 90.466946) scale(0.08 -0.08)">
      <defs>
       <path id="LMRoman17-Regular-6b" d="M 3040 0 
L 3040 153 
C 2739 153 2669 210 2477 491 
L 1670 1673 
C 1664 1686 1632 1724 1632 1743 
L 2144 2222 
C 2509 2528 2739 2560 2906 2560 
L 2906 2733 
C 2867 2733 2848 2720 2848 2720 
L 2534 2720 
C 2355 2720 2080 2720 1907 2733 
L 1907 2566 
C 1997 2559 2061 2508 2061 2419 
C 2061 2291 1926 2170 1926 2170 
L 960 1289 
L 960 4396 
L 198 4326 
L 198 4160 
C 576 4160 634 4122 634 3817 
L 634 426 
C 634 184 608 153 198 153 
L 198 -13 
C 352 0 634 0 794 0 
C 954 0 1235 0 1389 -13 
L 1389 153 
C 979 153 954 178 954 428 
L 954 1130 
L 1395 1532 
L 2042 574 
C 2118 459 2182 369 2182 286 
C 2182 172 2067 153 1990 153 
L 1990 -13 
C 2144 0 2419 0 2579 0 
L 3040 0 
z
" transform="scale(0.015625)"/>
      </defs>
      <use xlink:href="#LMRoman17-Regular-50" transform="scale(0.996264)"/>
      <use xlink:href="#LMRoman17-Regular-61" transform="translate(59.981095 0) scale(0.996264)"/>
      <use xlink:href="#LMRoman17-Regular-72" transform="translate(105.672043 0) scale(0.996264)"/>
      <use xlink:href="#LMRoman17-Regular-6b" transform="translate(140.953571 0) scale(0.996264)"/>
      <use xlink:href="#LMRoman17-Regular-65" transform="translate(186.642331 0) scale(0.996264)"/>
      <use xlink:href="#LMRoman17-Regular-73" transform="translate(227.12714 0) scale(0.996264)"/>
     </g>
    </g>
    <g id="line2d_26">
     <defs>
      <path id="m2df9d3c266" d="M 0 3.872983 
C 1.027127 3.872983 2.012324 3.464901 2.738613 2.738613 
C 3.464901 2.012324 3.872983 1.027127 3.872983 0 
C 3.872983 -1.027127 3.464901 -2.012324 2.738613 -2.738613 
C 2.012324 -3.464901 1.027127 -3.872983 0 -3.872983 
C -1.027127 -3.872983 -2.012324 -3.464901 -2.738613 -2.738613 
C -3.464901 -2.012324 -3.872983 -1.027127 -3.872983 0 
C -3.872983 1.027127 -3.464901 2.012324 -2.738613 2.738613 
C -2.012324 3.464901 -1.027127 3.872983 0 3.872983 
z
" style="stroke: #ffffff; stroke-opacity: 0.8; stroke-width: 0.619677"/>
     </defs>
     <g>
      <use xlink:href="#m2df9d3c266" x="114.2" y="98.81663" style="fill: #355f8d; fill-opacity: 0.8; stroke: #ffffff; stroke-opacity: 0.8; stroke-width: 0.619677"/>
     </g>
    </g>
    <g id="text_21">
     <!-- ASKAP -->
     <g transform="translate(128.6 101.61663) scale(0.08 -0.08)">
      <defs>
       <path id="LMRoman17-Regular-4b" d="M 4384 -6 
L 4384 160 
C 4077 160 3981 198 3789 492 
L 2362 2671 
L 3469 3781 
C 3699 4006 3942 4186 4301 4186 
L 4301 4352 
L 3885 4352 
C 3712 4352 3411 4352 3245 4358 
L 3245 4192 
C 3411 4180 3437 4065 3437 4019 
C 3437 3975 3411 3905 3386 3867 
L 1261 1738 
L 1261 3900 
C 1261 4186 1331 4186 1773 4186 
L 1773 4352 
C 1587 4352 1248 4352 1050 4352 
C 851 4352 512 4352 326 4352 
L 326 4186 
C 768 4186 838 4186 838 3899 
L 838 446 
C 838 160 768 160 326 160 
L 326 0 
C 512 0 851 0 1050 0 
C 1248 0 1587 0 1773 0 
L 1773 160 
C 1331 160 1261 160 1261 447 
L 1261 1579 
L 2080 2390 
L 3290 537 
C 3328 473 3373 390 3373 326 
C 3373 160 3194 160 3110 160 
L 3110 0 
C 3315 0 3610 0 3821 0 
C 3974 0 4237 0 4384 -6 
z
" transform="scale(0.015625)"/>
      </defs>
      <use xlink:href="#LMRoman17-Regular-41" transform="scale(0.996264)"/>
      <use xlink:href="#LMRoman17-Regular-53" transform="translate(69.069678 0) scale(0.996264)"/>
      <use xlink:href="#LMRoman17-Regular-4b" transform="translate(119.966766 0) scale(0.996264)"/>
      <use xlink:href="#LMRoman17-Regular-41" transform="translate(191.642501 0) scale(0.996264)"/>
      <use xlink:href="#LMRoman17-Regular-50" transform="translate(260.712179 0) scale(0.996264)"/>
     </g>
    </g>
    <g id="line2d_27">
     <defs>
      <path id="m73d0ce3737" d="M 0 3.872983 
C 1.027127 3.872983 2.012324 3.464901 2.738613 2.738613 
C 3.464901 2.012324 3.872983 1.027127 3.872983 0 
C 3.872983 -1.027127 3.464901 -2.012324 2.738613 -2.738613 
C 2.012324 -3.464901 1.027127 -3.872983 0 -3.872983 
C -1.027127 -3.872983 -2.012324 -3.464901 -2.738613 -2.738613 
C -3.464901 -2.012324 -3.872983 -1.027127 -3.872983 0 
C -3.872983 1.027127 -3.464901 2.012324 -2.738613 2.738613 
C -2.012324 3.464901 -1.027127 3.872983 0 3.872983 
z
" style="stroke: #ffffff; stroke-opacity: 0.8; stroke-width: 0.619677"/>
     </defs>
     <g>
      <use xlink:href="#m73d0ce3737" x="114.2" y="109.966315" style="fill: #2a788e; fill-opacity: 0.8; stroke: #ffffff; stroke-opacity: 0.8; stroke-width: 0.619677"/>
     </g>
    </g>
    <g id="text_22">
     <!-- Pushchino -->
     <g transform="translate(128.6 112.766315) scale(0.08 -0.08)">
      <defs>
       <path id="LMRoman17-Regular-68" d="M 3091 -13 
L 3091 153 
C 2682 153 2656 178 2656 428 
L 2656 1933 
C 2656 2259 2592 2790 1837 2790 
C 1312 2790 1056 2368 979 2157 
L 973 2157 
L 973 4396 
L 211 4326 
L 211 4160 
C 589 4160 646 4122 646 3817 
L 646 426 
C 646 184 621 153 211 153 
L 211 -13 
C 365 0 646 0 813 0 
C 979 0 1267 0 1421 -13 
L 1421 153 
C 1011 153 986 178 986 428 
L 986 1658 
C 986 2247 1344 2688 1792 2688 
C 2266 2688 2317 2266 2317 1958 
L 2317 428 
C 2317 184 2291 153 1882 153 
L 1882 -13 
C 2035 0 2317 0 2483 0 
C 2650 0 2938 0 3091 -13 
z
" transform="scale(0.015625)"/>
      </defs>
      <use xlink:href="#LMRoman17-Regular-50" transform="scale(0.996264)"/>
      <use xlink:href="#LMRoman17-Regular-75" transform="translate(62.583549 0) scale(0.996264)"/>
      <use xlink:href="#LMRoman17-Regular-73" transform="translate(113.480637 0) scale(0.996264)"/>
      <use xlink:href="#LMRoman17-Regular-68" transform="translate(149.283874 0) scale(0.996264)"/>
      <use xlink:href="#LMRoman17-Regular-63" transform="translate(200.180962 0) scale(0.996264)"/>
      <use xlink:href="#LMRoman17-Regular-68" transform="translate(238.063317 0) scale(0.996264)"/>
      <use xlink:href="#LMRoman17-Regular-69" transform="translate(288.960405 0) scale(0.996264)"/>
      <use xlink:href="#LMRoman17-Regular-6e" transform="translate(313.832421 0) scale(0.996264)"/>
      <use xlink:href="#LMRoman17-Regular-6f" transform="translate(364.729509 0) scale(0.996264)"/>
     </g>
    </g>
    <g id="line2d_28">
     <defs>
      <path id="m7d2bd1f58e" d="M 0 3.872983 
C 1.027127 3.872983 2.012324 3.464901 2.738613 2.738613 
C 3.464901 2.012324 3.872983 1.027127 3.872983 0 
C 3.872983 -1.027127 3.464901 -2.012324 2.738613 -2.738613 
C 2.012324 -3.464901 1.027127 -3.872983 0 -3.872983 
C -1.027127 -3.872983 -2.012324 -3.464901 -2.738613 -2.738613 
C -3.464901 -2.012324 -3.872983 -1.027127 -3.872983 0 
C -3.872983 1.027127 -3.464901 2.012324 -2.738613 2.738613 
C -2.012324 3.464901 -1.027127 3.872983 0 3.872983 
z
" style="stroke: #ffffff; stroke-opacity: 0.8; stroke-width: 0.619677"/>
     </defs>
     <g>
      <use xlink:href="#m7d2bd1f58e" x="114.2" y="121.116" style="fill: #21918c; fill-opacity: 0.8; stroke: #ffffff; stroke-opacity: 0.8; stroke-width: 0.619677"/>
     </g>
    </g>
    <g id="text_23">
     <!-- DSA-110 -->
     <g transform="translate(128.6 123.916) scale(0.08 -0.08)">
      <use xlink:href="#LMRoman17-Regular-44" transform="scale(0.996264)"/>
      <use xlink:href="#LMRoman17-Regular-53" transform="translate(70.395745 0) scale(0.996264)"/>
      <use xlink:href="#LMRoman17-Regular-41" transform="translate(121.292833 0) scale(0.996264)"/>
      <use xlink:href="#LMRoman17-Regular-2d" transform="translate(190.362511 0) scale(0.996264)"/>
      <use xlink:href="#LMRoman17-Regular-31" transform="translate(220.438751 0) scale(0.996264)"/>
      <use xlink:href="#LMRoman17-Regular-31" transform="translate(266.129699 0) scale(0.996264)"/>
      <use xlink:href="#LMRoman17-Regular-30" transform="translate(311.820648 0) scale(0.996264)"/>
     </g>
    </g>
    <g id="line2d_29">
     <defs>
      <path id="m4fbfc067e8" d="M 0 3.872983 
C 1.027127 3.872983 2.012324 3.464901 2.738613 2.738613 
C 3.464901 2.012324 3.872983 1.027127 3.872983 0 
C 3.872983 -1.027127 3.464901 -2.012324 2.738613 -2.738613 
C 2.012324 -3.464901 1.027127 -3.872983 0 -3.872983 
C -1.027127 -3.872983 -2.012324 -3.464901 -2.738613 -2.738613 
C -3.464901 -2.012324 -3.872983 -1.027127 -3.872983 0 
C -3.872983 1.027127 -3.464901 2.012324 -2.738613 2.738613 
C -2.012324 3.464901 -1.027127 3.872983 0 3.872983 
z
" style="stroke: #ffffff; stroke-opacity: 0.8; stroke-width: 0.619677"/>
     </defs>
     <g>
      <use xlink:href="#m4fbfc067e8" x="114.2" y="132.265685" style="fill: #22a884; fill-opacity: 0.8; stroke: #ffffff; stroke-opacity: 0.8; stroke-width: 0.619677"/>
     </g>
    </g>
    <g id="text_24">
     <!-- UTMOST -->
     <g transform="translate(128.6 135.065685) scale(0.08 -0.08)">
      <defs>
       <path id="LMRoman17-Regular-4f" d="M 4307 2135 
C 4307 3437 3366 4416 2304 4416 
C 1216 4416 294 3424 294 2135 
C 294 845 1229 -128 2298 -128 
C 3392 -128 4307 864 4307 2135 
z
M 3821 2217 
C 3821 686 3008 -13 2304 -13 
C 1574 -13 781 711 781 2217 
C 781 3716 1651 4301 2298 4301 
C 2976 4301 3821 3698 3821 2217 
z
" transform="scale(0.015625)"/>
      </defs>
      <use xlink:href="#LMRoman17-Regular-55" transform="scale(0.996264)"/>
      <use xlink:href="#LMRoman17-Regular-54" transform="translate(69.069678 0) scale(0.996264)"/>
      <use xlink:href="#LMRoman17-Regular-4d" transform="translate(135.579468 0) scale(0.996264)"/>
      <use xlink:href="#LMRoman17-Regular-4f" transform="translate(220.261939 0) scale(0.996264)"/>
      <use xlink:href="#LMRoman17-Regular-53" transform="translate(291.977959 0) scale(0.996264)"/>
      <use xlink:href="#LMRoman17-Regular-54" transform="translate(342.875046 0) scale(0.996264)"/>
     </g>
    </g>
    <g id="line2d_30">
     <defs>
      <path id="m5297b76a51" d="M 0 3.872983 
C 1.027127 3.872983 2.012324 3.464901 2.738613 2.738613 
C 3.464901 2.012324 3.872983 1.027127 3.872983 0 
C 3.872983 -1.027127 3.464901 -2.012324 2.738613 -2.738613 
C 2.012324 -3.464901 1.027127 -3.872983 0 -3.872983 
C -1.027127 -3.872983 -2.012324 -3.464901 -2.738613 -2.738613 
C -3.464901 -2.012324 -3.872983 -1.027127 -3.872983 0 
C -3.872983 1.027127 -3.464901 2.012324 -2.738613 2.738613 
C -2.012324 3.464901 -1.027127 3.872983 0 3.872983 
z
" style="stroke: #ffffff; stroke-opacity: 0.8; stroke-width: 0.619677"/>
     </defs>
     <g>
      <use xlink:href="#m5297b76a51" x="114.2" y="143.41537" style="fill: #44bf70; fill-opacity: 0.8; stroke: #ffffff; stroke-opacity: 0.8; stroke-width: 0.619677"/>
     </g>
    </g>
    <g id="text_25">
     <!-- MeerKAT -->
     <g transform="translate(128.6 146.21537) scale(0.08 -0.08)">
      <use xlink:href="#LMRoman17-Regular-4d" transform="scale(0.996264)"/>
      <use xlink:href="#LMRoman17-Regular-65" transform="translate(84.682471 0) scale(0.996264)"/>
      <use xlink:href="#LMRoman17-Regular-65" transform="translate(125.16728 0) scale(0.996264)"/>
      <use xlink:href="#LMRoman17-Regular-72" transform="translate(165.65209 0) scale(0.996264)"/>
      <use xlink:href="#LMRoman17-Regular-4b" transform="translate(200.933617 0) scale(0.996264)"/>
      <use xlink:href="#LMRoman17-Regular-41" transform="translate(272.609353 0) scale(0.996264)"/>
      <use xlink:href="#LMRoman17-Regular-54" transform="translate(333.871958 0) scale(0.996264)"/>
     </g>
    </g>
    <g id="line2d_31">
     <defs>
      <path id="m6853608a73" d="M 0 3.872983 
C 1.027127 3.872983 2.012324 3.464901 2.738613 2.738613 
C 3.464901 2.012324 3.872983 1.027127 3.872983 0 
C 3.872983 -1.027127 3.464901 -2.012324 2.738613 -2.738613 
C 2.012324 -3.464901 1.027127 -3.872983 0 -3.872983 
C -1.027127 -3.872983 -2.012324 -3.464901 -2.738613 -2.738613 
C -3.464901 -2.012324 -3.872983 -1.027127 -3.872983 0 
C -3.872983 1.027127 -3.464901 2.012324 -2.738613 2.738613 
C -2.012324 3.464901 -1.027127 3.872983 0 3.872983 
z
" style="stroke: #ffffff; stroke-opacity: 0.8; stroke-width: 0.619677"/>
     </defs>
     <g>
      <use xlink:href="#m6853608a73" x="114.2" y="154.565055" style="fill: #7ad151; fill-opacity: 0.8; stroke: #ffffff; stroke-opacity: 0.8; stroke-width: 0.619677"/>
     </g>
    </g>
    <g id="text_26">
     <!-- GBT -->
     <g transform="translate(128.6 157.365055) scale(0.08 -0.08)">
      <defs>
       <path id="LMRoman17-Regular-47" d="M 4390 1505 
L 4390 1670 
C 4237 1664 3891 1664 3718 1664 
L 2797 1664 
L 2797 1505 
L 2989 1505 
C 3539 1505 3552 1434 3552 1201 
L 3552 774 
C 3552 63 2720 63 2522 63 
C 1862 63 781 511 781 2160 
C 781 3808 1843 4250 2464 4250 
C 3187 4250 3712 3626 3834 2741 
C 3846 2664 3846 2651 3904 2651 
C 3974 2651 3974 2664 3974 2779 
L 3974 4288 
C 3974 4402 3968 4409 3930 4409 
C 3904 4409 3898 4402 3853 4326 
L 3571 3791 
C 3258 4187 2874 4416 2381 4416 
C 1286 4416 294 3456 294 2148 
C 294 845 1267 -128 2394 -128 
C 2912 -128 3418 56 3616 417 
C 3725 158 3904 -20 3936 -20 
C 3968 -20 3974 -13 3974 100 
L 3974 1233 
C 3974 1473 3994 1505 4390 1505 
z
" transform="scale(0.015625)"/>
       <path id="LMRoman17-Regular-42" d="M 3885 1164 
C 3885 1741 3360 2233 2675 2233 
C 3290 2356 3718 2771 3718 3264 
C 3718 3802 3194 4352 2368 4352 
L 333 4352 
L 333 4186 
C 774 4186 845 4186 845 3900 
L 845 452 
C 845 166 774 166 333 166 
L 333 0 
L 2534 0 
C 3354 0 3885 583 3885 1164 
z
M 3251 3277 
C 3251 2791 2861 2304 2170 2304 
L 1248 2304 
L 1248 3937 
C 1248 4155 1261 4186 1517 4186 
L 2336 4186 
C 2970 4186 3251 3674 3251 3277 
z
M 3411 1162 
C 3411 699 3046 166 2349 166 
L 1517 166 
C 1261 166 1248 197 1248 413 
L 1248 2202 
L 2432 2202 
C 3091 2202 3411 1625 3411 1162 
z
" transform="scale(0.015625)"/>
      </defs>
      <use xlink:href="#LMRoman17-Regular-47" transform="scale(0.996264)"/>
      <use xlink:href="#LMRoman17-Regular-42" transform="translate(72.356015 0) scale(0.996264)"/>
      <use xlink:href="#LMRoman17-Regular-54" transform="translate(137.545621 0) scale(0.996264)"/>
     </g>
    </g>
    <g id="line2d_32">
     <defs>
      <path id="m557812d14d" d="M 0 3.872983 
C 1.027127 3.872983 2.012324 3.464901 2.738613 2.738613 
C 3.464901 2.012324 3.872983 1.027127 3.872983 0 
C 3.872983 -1.027127 3.464901 -2.012324 2.738613 -2.738613 
C 2.012324 -3.464901 1.027127 -3.872983 0 -3.872983 
C -1.027127 -3.872983 -2.012324 -3.464901 -2.738613 -2.738613 
C -3.464901 -2.012324 -3.872983 -1.027127 -3.872983 0 
C -3.872983 1.027127 -3.464901 2.012324 -2.738613 2.738613 
C -2.012324 3.464901 -1.027127 3.872983 0 3.872983 
z
" style="stroke: #ffffff; stroke-opacity: 0.8; stroke-width: 0.619677"/>
     </defs>
     <g>
      <use xlink:href="#m557812d14d" x="114.2" y="165.71474" style="fill: #bddf26; fill-opacity: 0.8; stroke: #ffffff; stroke-opacity: 0.8; stroke-width: 0.619677"/>
     </g>
    </g>
    <g id="text_27">
     <!-- WSRT -->
     <g transform="translate(128.6 168.51474) scale(0.08 -0.08)">
      <defs>
       <path id="LMRoman17-Regular-57" d="M 6048 4160 
L 6048 4326 
L 5600 4326 
C 5440 4326 5158 4326 5005 4332 
L 5005 4160 
C 5293 4160 5414 4000 5414 3847 
C 5414 3802 5408 3777 5382 3707 
L 4390 555 
L 3347 3873 
C 3328 3937 3322 3963 3322 3988 
C 3322 4160 3603 4160 3725 4160 
L 3725 4326 
C 3539 4326 3219 4326 3021 4326 
C 2861 4326 2573 4326 2426 4332 
L 2426 4160 
C 2720 4160 2797 4141 2861 4027 
C 2886 3969 2989 3638 2989 3619 
C 2989 3593 2976 3555 2970 3536 
L 2029 561 
L 986 3867 
C 954 3957 954 3982 954 3982 
C 954 4160 1235 4160 1363 4160 
L 1363 4326 
C 1178 4326 858 4326 659 4326 
C 493 4326 211 4326 58 4332 
L 58 4160 
C 442 4160 467 4122 531 3918 
L 1779 -20 
C 1811 -115 1811 -128 1869 -128 
C 1920 -128 1939 -115 1965 -26 
L 3053 3433 
L 4141 -26 
C 4166 -115 4186 -128 4237 -128 
C 4294 -128 4294 -115 4326 -20 
L 5523 3764 
C 5581 3936 5677 4160 6048 4160 
z
" transform="scale(0.015625)"/>
       <path id="LMRoman17-Regular-52" d="M 4365 503 
C 4365 540 4365 585 4307 585 
C 4256 585 4250 547 4250 522 
C 4218 112 4032 -26 3834 -26 
C 3482 -26 3443 377 3405 768 
C 3386 903 3373 998 3360 1139 
C 3322 1459 3270 1927 2509 2157 
C 3117 2277 3629 2684 3629 3191 
C 3629 3787 2950 4326 2054 4326 
L 333 4326 
L 333 4160 
C 774 4160 845 4160 845 3873 
L 845 415 
C 845 128 774 128 333 128 
L 333 -26 
C 518 -26 851 -26 1050 -26 
C 1248 -26 1581 -26 1766 -26 
L 1766 128 
C 1325 128 1254 128 1254 417 
L 1254 2112 
L 2003 2112 
C 2368 2112 2573 1964 2662 1881 
C 2918 1632 2918 1459 2918 1024 
C 2918 595 2918 377 3110 160 
C 3354 -102 3680 -128 3821 -128 
C 4294 -128 4365 396 4365 503 
z
M 3142 3190 
C 3142 2372 2464 2214 1984 2214 
L 1254 2214 
L 1254 3913 
C 1254 4129 1267 4160 1523 4160 
L 1990 4160 
C 2522 4160 3142 3977 3142 3190 
z
" transform="scale(0.015625)"/>
      </defs>
      <use xlink:href="#LMRoman17-Regular-57" transform="scale(0.996264)"/>
      <use xlink:href="#LMRoman17-Regular-53" transform="translate(95.094841 0) scale(0.996264)"/>
      <use xlink:href="#LMRoman17-Regular-52" transform="translate(145.991928 0) scale(0.996264)"/>
      <use xlink:href="#LMRoman17-Regular-54" transform="translate(205.974635 0) scale(0.996264)"/>
     </g>
    </g>
   </g>
  </g>
 </g>
 <defs>
  <clipPath id="pa2ccc00465">
   <rect x="99" y="51.84" width="613.8" height="332.64"/>
  </clipPath>
 </defs>
</svg>
